<svg width="24" height="24" viewBox="0 0 24 24" fill="none" xmlns="http://www.w3.org/2000/svg">
<path d="M11.4885 15.3628V13.6134C14.1637 13.6134 15.4499 14.2448 16.5782 15.4266C16.8313 15.6914 17.2813 15.4884 17.2481 15.1252C16.9926 12.2447 15.6478 9.63656 11.4885 9.63656V7.88719C11.4882 7.81104 11.4657 7.73664 11.4236 7.67317C11.3815 7.6097 11.3217 7.55995 11.2517 7.53004C11.1817 7.50013 11.1044 7.49138 11.0295 7.50487C10.9545 7.51836 10.8852 7.55349 10.8299 7.60594L6.87088 11.3438C6.83271 11.3797 6.8023 11.4231 6.78151 11.4712C6.76072 11.5193 6.75 11.5712 6.75 11.6236C6.75 11.676 6.76072 11.7279 6.78151 11.776C6.8023 11.8241 6.83271 11.8675 6.87088 11.9034L10.8281 15.6427C10.8831 15.6956 10.9525 15.7313 11.0276 15.7452C11.1028 15.7591 11.1803 15.7506 11.2507 15.7208C11.321 15.691 11.3811 15.6412 11.4234 15.5775C11.4657 15.5139 11.4883 15.4392 11.4885 15.3628Z" fill="current"/>
<path d="M12 3C7.03125 3 3 7.03125 3 12C3 16.9688 7.03125 21 12 21C16.9688 21 21 16.9688 21 12C21 7.03125 16.9688 3 12 3Z" stroke="current" stroke-width="1.5" stroke-miterlimit="10"/>
</svg>
