<svg width="24" height="24" viewBox="0 0 24 24" fill="none" xmlns="http://www.w3.org/2000/svg">
<path d="M12.5115 15.3628V13.6134C9.83637 13.6134 8.55012 14.2448 7.42184 15.4266C7.16871 15.6914 6.71871 15.4884 6.75199 15.1252C7.00746 12.2447 8.3523 9.63657 12.5115 9.63657V7.88719C12.5122 7.8115 12.535 7.73766 12.5769 7.67466C12.6189 7.61167 12.6783 7.56225 12.7479 7.53243C12.8175 7.50262 12.8942 7.49369 12.9688 7.50674C13.0433 7.5198 13.1125 7.55426 13.1678 7.60594L17.1292 11.3438C17.1673 11.3797 17.1978 11.4231 17.2185 11.4712C17.2393 11.5193 17.2501 11.5712 17.2501 11.6236C17.2501 11.676 17.2393 11.7279 17.2185 11.776C17.1978 11.8241 17.1673 11.8675 17.1292 11.9034L13.172 15.6427C13.1169 15.6956 13.0475 15.7313 12.9724 15.7452C12.8973 15.7591 12.8197 15.7506 12.7494 15.7208C12.679 15.691 12.619 15.6412 12.5767 15.5775C12.5344 15.5139 12.5117 15.4392 12.5115 15.3628Z" fill="black"/>
<path d="M3 12C3 16.9688 7.03125 21 12 21C16.9688 21 21 16.9688 21 12C21 7.03125 16.9688 3 12 3C7.03125 3 3 7.03125 3 12Z" stroke="black" stroke-width="1.5" stroke-miterlimit="10"/>
</svg>
