<svg width="56" height="56" viewBox="0 0 56 56" fill="none" xmlns="http://www.w3.org/2000/svg">
<path d="M5.25 28C5.25 40.5639 15.4361 50.75 28 50.75C40.5639 50.75 50.75 40.5639 50.75 28C50.75 15.4361 40.5639 5.25 28 5.25C15.4361 5.25 5.25 15.4361 5.25 28ZM28.5086 18.0075C28.6718 18.1694 28.8015 18.3618 28.8903 18.5738C28.9791 18.7858 29.0253 19.0132 29.0262 19.243C29.0271 19.4729 28.9828 19.7007 28.8956 19.9134C28.8085 20.1261 28.6803 20.3195 28.5184 20.4827L22.7959 26.25H37.4062C37.8704 26.25 38.3155 26.4344 38.6437 26.7626C38.9719 27.0908 39.1562 27.5359 39.1562 28C39.1562 28.4641 38.9719 28.9092 38.6437 29.2374C38.3155 29.5656 37.8704 29.75 37.4062 29.75H22.7959L28.5184 35.5173C28.6803 35.6807 28.8084 35.8743 28.8955 36.0871C28.9825 36.2999 29.0268 36.5278 29.0258 36.7577C29.0248 36.9877 28.9785 37.2152 28.8896 37.4272C28.8006 37.6393 28.6708 37.8317 28.5075 37.9936C28.3442 38.1555 28.1506 38.2836 27.9378 38.3706C27.7249 38.4577 27.4971 38.502 27.2671 38.501C27.0372 38.5 26.8097 38.4537 26.5976 38.3647C26.3856 38.2758 26.1931 38.146 26.0312 37.9827L17.348 29.2327C17.0227 28.9049 16.8402 28.4618 16.8402 28C16.8402 27.5382 17.0227 27.0951 17.348 26.7673L26.0312 18.0173C26.1931 17.8538 26.3857 17.7238 26.5979 17.6348C26.8101 17.5458 27.0378 17.4995 27.2679 17.4986C27.498 17.4977 27.726 17.5422 27.9389 17.6295C28.1518 17.7168 28.3454 17.8453 28.5086 18.0075V18.0075Z" fill="current" />
</svg>
