<svg width="24" height="24" viewBox="0 0 24 24" fill="none" xmlns="http://www.w3.org/2000/svg">
<path d="M18.3751 9.75H17.2501V9.48094C17.6282 9.05326 17.8764 8.52646 17.9653 7.96252C18.0542 7.39859 17.9802 6.821 17.7519 6.29772C17.5237 5.77443 17.1507 5.32724 16.6769 5.00876C16.2031 4.69028 15.6481 4.51377 15.0774 4.5C14.8382 3.6647 14.3935 2.90261 13.7841 2.28328C13.3079 1.79584 12.7386 1.40897 12.1101 1.14559C11.4815 0.882212 10.8065 0.747691 10.1251 0.749999C8.72303 0.749999 7.41663 1.32562 6.42194 2.37562C5.93374 2.22007 5.4107 2.2108 4.91729 2.34894C4.42389 2.48709 3.9817 2.76661 3.64525 3.15305C3.3088 3.53948 3.0928 4.01594 3.02388 4.52366C2.95497 5.03138 3.03614 5.54817 3.25741 6.01031C2.90233 6.32546 2.62724 6.72049 2.45481 7.16283C2.28238 7.60517 2.21755 8.08216 2.26567 8.55448C2.31378 9.0268 2.47347 9.48092 2.73155 9.8794C2.98964 10.2779 3.33873 10.6093 3.75006 10.8464V20.625C3.75081 21.321 4.02761 21.9882 4.51973 22.4803C5.01185 22.9725 5.6791 23.2493 6.37506 23.25H14.6251C15.321 23.2493 15.9883 22.9725 16.4804 22.4803C16.9725 21.9882 17.2493 21.321 17.2501 20.625V20.25H18.3751C19.2699 20.249 20.1277 19.8931 20.7605 19.2604C21.3932 18.6277 21.7491 17.7698 21.7501 16.875V13.125C21.7491 12.2302 21.3932 11.3723 20.7605 10.7396C20.1277 10.1069 19.2699 9.75099 18.3751 9.75ZM8.25006 19.5C8.25006 19.6989 8.17105 19.8897 8.03039 20.0303C7.88974 20.171 7.69898 20.25 7.50006 20.25C7.30115 20.25 7.11039 20.171 6.96973 20.0303C6.82908 19.8897 6.75006 19.6989 6.75006 19.5V12C6.75006 11.8011 6.82908 11.6103 6.96973 11.4697C7.11039 11.329 7.30115 11.25 7.50006 11.25C7.69898 11.25 7.88974 11.329 8.03039 11.4697C8.17105 11.6103 8.25006 11.8011 8.25006 12V19.5ZM11.2501 19.5C11.2501 19.6989 11.171 19.8897 11.0304 20.0303C10.8897 20.171 10.699 20.25 10.5001 20.25C10.3012 20.25 10.1104 20.171 9.96973 20.0303C9.82908 19.8897 9.75006 19.6989 9.75006 19.5V12C9.75006 11.8011 9.82908 11.6103 9.96973 11.4697C10.1104 11.329 10.3012 11.25 10.5001 11.25C10.699 11.25 10.8897 11.329 11.0304 11.4697C11.171 11.6103 11.2501 11.8011 11.2501 12V19.5ZM14.2501 19.5C14.2501 19.6989 14.171 19.8897 14.0304 20.0303C13.8897 20.171 13.699 20.25 13.5001 20.25C13.3012 20.25 13.1104 20.171 12.9697 20.0303C12.8291 19.8897 12.7501 19.6989 12.7501 19.5V12C12.7501 11.8011 12.8291 11.6103 12.9697 11.4697C13.1104 11.329 13.3012 11.25 13.5001 11.25C13.699 11.25 13.8897 11.329 14.0304 11.4697C14.171 11.6103 14.2501 11.8011 14.2501 12V19.5ZM15.0001 9C14.6096 9 14.0368 8.75719 13.749 8.46984C13.6084 8.32917 13.4177 8.25009 13.2188 8.25H7.50006C7.34642 8.25034 7.19658 8.29787 7.07083 8.38615C6.94507 8.47443 6.84947 8.5992 6.79694 8.74359C6.47678 9.61922 5.69069 9.75 5.25006 9.75C4.85224 9.75 4.47071 9.59196 4.1894 9.31066C3.9081 9.02935 3.75006 8.64782 3.75006 8.25C3.75006 7.85217 3.9081 7.47064 4.1894 7.18934C4.47071 6.90803 4.85224 6.75 5.25006 6.75C5.25428 6.75 5.67756 6.76594 6.01881 7.02187C6.09761 7.08097 6.18727 7.12397 6.28268 7.14841C6.37809 7.17285 6.47738 7.17826 6.57488 7.16434C6.67238 7.15041 6.76619 7.11741 6.85093 7.06723C6.93568 7.01705 7.00972 6.95067 7.06881 6.87187C7.12791 6.79308 7.17091 6.70342 7.19535 6.60801C7.21979 6.5126 7.2252 6.41331 7.21128 6.31581C7.19735 6.21831 7.16435 6.1245 7.11417 6.03975C7.06399 5.955 6.99761 5.88097 6.91881 5.82187C6.43287 5.46751 5.85122 5.26819 5.25006 5.25C5.02926 5.25013 4.80916 5.27482 4.59381 5.32359C4.51939 5.15244 4.48872 4.96546 4.50457 4.7795C4.52041 4.59355 4.58226 4.41445 4.68456 4.25835C4.78686 4.10226 4.92639 3.97406 5.09057 3.88532C5.25475 3.79658 5.43843 3.75007 5.62506 3.75C5.80225 3.74915 5.97708 3.79055 6.13506 3.87076C6.29305 3.95098 6.42964 4.0677 6.5335 4.21125C6.61802 4.32783 6.69191 4.45177 6.75428 4.58156C6.77463 4.7727 6.86759 4.94872 7.01397 5.0733C7.16035 5.19788 7.34897 5.26151 7.5409 5.25104C7.73283 5.24057 7.91342 5.15682 8.04538 5.01706C8.17735 4.8773 8.25062 4.69221 8.25006 4.5C8.25006 4.18266 8.08085 3.7889 7.74569 3.32812C7.72413 3.29859 7.69881 3.26953 7.67772 3.24094C8.3621 2.59875 9.21756 2.25 10.1251 2.25C10.6074 2.24861 11.085 2.34407 11.5297 2.53071C11.9744 2.71736 12.3771 2.99139 12.714 3.33656C13.1352 3.76881 13.4462 4.29613 13.6207 4.87395C13.7951 5.45177 13.8279 6.0631 13.7162 6.65625C13.6977 6.75302 13.6986 6.85247 13.7186 6.94892C13.7386 7.04537 13.7774 7.13693 13.8328 7.21837C13.8883 7.29981 13.9592 7.36954 14.0415 7.42357C14.1239 7.47761 14.2161 7.51489 14.3129 7.53328C14.3592 7.54199 14.4063 7.54638 14.4535 7.54641C14.6279 7.54623 14.7968 7.48529 14.9311 7.37408C15.0654 7.26286 15.1567 7.10832 15.1894 6.93703C15.2465 6.63685 15.2773 6.33225 15.2813 6.02672C15.6479 6.09686 15.9752 6.30116 16.1993 6.59973C16.4233 6.89829 16.5279 7.26965 16.4928 7.64126C16.4576 8.01286 16.2852 8.35802 16.0092 8.60927C15.7331 8.86053 15.3733 8.99985 15.0001 9ZM20.2501 16.875C20.2501 17.3723 20.0525 17.8492 19.7009 18.2008C19.3493 18.5525 18.8723 18.75 18.3751 18.75H17.2501V11.25H18.3751C18.8723 11.25 19.3493 11.4475 19.7009 11.7992C20.0525 12.1508 20.2501 12.6277 20.2501 13.125V16.875Z" fill="black"/>
</svg>
