<svg width="24" height="24" viewBox="0 0 24 24" fill="none" xmlns="http://www.w3.org/2000/svg">
<path d="M17.625 20.25H5.4375C3.92016 20.25 2.61422 19.8483 1.65984 19.0889C0.57375 18.2241 0 16.9402 0 15.375C0 12.6764 1.96875 11.1291 4.10437 10.6523C4.24485 10.6203 4.37314 10.5485 4.47389 10.4455C4.57464 10.3425 4.64359 10.2127 4.6725 10.0716C5.0325 8.35219 5.81859 6.87703 6.97781 5.75906C8.32705 4.46197 10.1284 3.74135 12 3.75C13.6641 3.75 15.1987 4.29797 16.4381 5.33438C17.2853 6.04896 17.9593 6.9465 18.4092 7.95938C18.4576 8.0681 18.5312 8.16374 18.6239 8.2384C18.7165 8.31306 18.8257 8.3646 18.9422 8.38875C20.2078 8.65172 21.3361 9.20109 22.185 9.97547C23.3723 11.0569 24 12.5353 24 14.25C24 15.9375 23.3259 17.4787 22.102 18.5902C20.9231 19.6608 19.3331 20.25 17.625 20.25Z" fill="black"/>
</svg>
