<svg width="24" height="24" viewBox="0 0 24 24" fill="none" xmlns="http://www.w3.org/2000/svg">
<path d="M18 10.5V19.125C18 19.3712 17.9515 19.615 17.8573 19.8425C17.763 20.07 17.6249 20.2767 17.4508 20.4508C17.2767 20.6249 17.07 20.763 16.8425 20.8573C16.615 20.9515 16.3712 21 16.125 21H4.875C4.37772 21 3.90081 20.8025 3.54917 20.4508C3.19754 20.0992 3 19.6223 3 19.125V7.875C3 7.37772 3.19754 6.90081 3.54917 6.54917C3.90081 6.19754 4.37772 6 4.875 6H12.7256" stroke="black" stroke-width="1.5" stroke-linecap="round" stroke-linejoin="round"/>
<path d="M21.5597 2.49609C21.4912 2.42083 21.4082 2.36024 21.3156 2.31797C21.2231 2.27571 21.1229 2.25266 21.0211 2.2502C20.9194 2.24775 20.8182 2.26595 20.7237 2.3037C20.6292 2.34145 20.5434 2.39797 20.4713 2.46984L19.8915 3.04687C19.8212 3.11719 19.7817 3.21254 19.7817 3.31195C19.7817 3.41137 19.8212 3.50671 19.8915 3.57703L20.423 4.10765C20.4579 4.14266 20.4993 4.17044 20.5449 4.1894C20.5905 4.20835 20.6394 4.21811 20.6888 4.21811C20.7382 4.21811 20.7871 4.20835 20.8327 4.1894C20.8783 4.17044 20.9197 4.14266 20.9546 4.10765L21.5199 3.54515C21.8058 3.25969 21.8326 2.79469 21.5597 2.49609ZM18.7191 4.21875L10.2572 12.6656C10.2059 12.7167 10.1686 12.7802 10.149 12.8498L9.75756 14.0156C9.74818 14.0473 9.74752 14.0808 9.75564 14.1128C9.76375 14.1448 9.78035 14.174 9.80368 14.1973C9.82701 14.2206 9.85621 14.2372 9.88818 14.2454C9.92016 14.2535 9.95374 14.2528 9.98537 14.2434L11.1502 13.852C11.2199 13.8323 11.2833 13.7951 11.3344 13.7437L19.7813 5.28094C19.8595 5.20195 19.9033 5.09533 19.9033 4.98422C19.9033 4.87311 19.8595 4.76648 19.7813 4.6875L19.3149 4.21875C19.2358 4.13989 19.1287 4.0956 19.017 4.0956C18.9053 4.0956 18.7982 4.13989 18.7191 4.21875Z" fill="black"/>
</svg>
