<svg width="24" height="24" viewBox="0 0 24 24" fill="current" xmlns="http://www.w3.org/2000/svg">
<path d="M21 12C21 7.03125 16.9688 3 12 3C7.03125 3 3 7.03125 3 12C3 16.9688 7.03125 21 12 21C16.9688 21 21 16.9688 21 12Z" stroke="current" stroke-width="1.5" stroke-miterlimit="10"/>
<path d="M16.4375 7.07484L10.9438 9.27234C10.5665 9.42323 10.2237 9.6492 9.9364 9.93654C9.64906 10.2239 9.42309 10.5666 9.27221 10.9439L7.07471 16.4377C7.04743 16.5058 7.04075 16.5805 7.0555 16.6524C7.07025 16.7243 7.10578 16.7903 7.15769 16.8422C7.20959 16.8941 7.27559 16.9296 7.3475 16.9444C7.4194 16.9591 7.49406 16.9524 7.56221 16.9252L13.056 14.7277C13.4333 14.5768 13.776 14.3508 14.0633 14.0635C14.3507 13.7761 14.5766 13.4334 14.7275 13.0561L16.925 7.56234C16.9523 7.4942 16.959 7.41954 16.9442 7.34763C16.9295 7.27573 16.8939 7.20973 16.842 7.15782C16.7901 7.10592 16.7241 7.07039 16.6522 7.05564C16.5803 7.04089 16.5057 7.04757 16.4375 7.07484ZM11.9999 13.125C11.7774 13.125 11.5599 13.059 11.3748 12.9354C11.1898 12.8118 11.0456 12.6361 10.9605 12.4305C10.8753 12.225 10.8531 11.9988 10.8965 11.7805C10.9399 11.5623 11.047 11.3618 11.2044 11.2045C11.3617 11.0472 11.5622 10.94 11.7804 10.8966C11.9986 10.8532 12.2248 10.8755 12.4304 10.9606C12.6359 11.0458 12.8116 11.19 12.9353 11.375C13.0589 11.56 13.1249 11.7775 13.1249 12C13.1249 12.2984 13.0063 12.5845 12.7954 12.7955C12.5844 13.0065 12.2982 13.125 11.9999 13.125Z" fill="current"/>
</svg>
