<svg width="24" height="24" viewBox="0 0 24 24" fill="current" xmlns="http://www.w3.org/2000/svg">
<path d="M19.1247 4.50001H11.8174C11.5954 4.50072 11.3783 4.43545 11.1935 4.31251L9.89034 3.4411C9.45882 3.15254 8.95116 2.99899 8.43206 3.00001H4.87471C4.17875 3.00075 3.5115 3.27755 3.01938 3.76967C2.52726 4.26179 2.25046 4.92904 2.24971 5.62501V6.75001H21.7497C21.7497 5.30251 20.5722 4.50001 19.1247 4.50001ZM19.863 21H4.13643C3.44766 20.9992 2.78678 20.7278 2.29633 20.2442C1.80589 19.7605 1.52517 19.1035 1.51471 18.4149L0.758151 10.6927V10.6795C0.733376 10.37 0.772929 10.0587 0.874322 9.76527C0.975715 9.47179 1.13675 9.20248 1.3473 8.97427C1.55785 8.74607 1.81335 8.56391 2.09773 8.43926C2.38212 8.31462 2.68922 8.25018 2.99971 8.25H21.0044C21.3148 8.25031 21.6218 8.31484 21.9061 8.43954C22.1904 8.56425 22.4457 8.74643 22.6562 8.97462C22.8666 9.20281 23.0276 9.47208 23.1289 9.76549C23.2303 10.0589 23.2698 10.3701 23.245 10.6795V10.6927L22.4847 18.4149C22.4743 19.1035 22.1935 19.7605 21.7031 20.2442C21.2126 20.7278 20.5518 20.9992 19.863 21Z" fill="#212121"/>
</svg>
