<svg width="24" height="24" viewBox="0 0 24 24" fill="none" xmlns="http://www.w3.org/2000/svg">
<path d="M2.25 8.25V8.28094C2.24889 8.47421 2.17911 8.66078 2.05312 8.80734V8.80969C1.8 9.10875 1.5 9.64406 1.5 10.5C1.5 11.2758 1.74844 11.8233 2.0475 12.1833C2.17871 12.343 2.2503 12.5433 2.25 12.75C2.25 13.1478 2.40804 13.5294 2.68934 13.8107C2.97064 14.092 3.35218 14.25 3.75 14.25H4.125C4.22446 14.25 4.31984 14.2105 4.39016 14.1402C4.46049 14.0698 4.5 13.9745 4.5 13.875V7.125C4.5 7.02555 4.46049 6.93016 4.39016 6.85984C4.31984 6.78951 4.22446 6.75 4.125 6.75H3.75C3.35218 6.75 2.97064 6.90804 2.68934 7.18934C2.40804 7.47065 2.25 7.85218 2.25 8.25ZM21.1959 8.74453L21.1523 8.73656C21.1095 8.72838 21.0708 8.70551 21.043 8.67188C21.0152 8.63825 21 8.59598 21 8.55234V2.90625C21 2.31375 20.6067 1.78125 20.0208 1.57875C19.462 1.38609 18.8798 1.54313 18.5358 1.97859C17.8038 2.85264 16.9992 3.66319 16.1306 4.40156C15.023 5.33906 13.9631 6.00703 12.99 6.38485C12.919 6.4119 12.858 6.45986 12.8149 6.52239C12.7717 6.58492 12.7486 6.65906 12.7486 6.735V14.0156C12.7487 14.1622 12.7918 14.3056 12.8725 14.428C12.9533 14.5504 13.0681 14.6464 13.2028 14.7042C14.1094 15.0928 15.0891 15.7275 16.1091 16.5923C16.9842 17.3374 17.7946 18.1553 18.5316 19.0373C18.6496 19.1855 18.8003 19.3043 18.9719 19.3845C19.1435 19.4648 19.3313 19.5043 19.5206 19.5C19.6871 19.4993 19.8523 19.4717 20.01 19.4184C20.6114 19.2188 21 18.7055 21 18.1125V12.4467C21 12.4025 21.0157 12.3596 21.0443 12.3258C21.0729 12.2921 21.1125 12.2694 21.1561 12.262L21.1959 12.2555C21.6469 12.1331 22.5 11.6095 22.5 10.5C22.5 9.39047 21.6469 8.86688 21.1959 8.74453ZM11.25 15V7.125C11.25 7.02555 11.2105 6.93016 11.1402 6.85984C11.0698 6.78951 10.9745 6.75 10.875 6.75H6.375C6.27554 6.75 6.18016 6.78951 6.10983 6.85984C6.03951 6.93016 6 7.02555 6 7.125V21.375C6 21.6734 6.11853 21.9595 6.3295 22.1705C6.54048 22.3815 6.82663 22.5 7.125 22.5H9.58359C9.8173 22.502 10.0483 22.4504 10.259 22.3492C10.4697 22.2481 10.6544 22.1 10.7991 21.9164C10.9473 21.7263 11.0471 21.503 11.0896 21.2658C11.1322 21.0285 11.1163 20.7844 11.0433 20.5547C10.9673 20.3119 10.8731 20.0391 10.7728 19.7489C10.402 18.6755 9.91313 18.0112 9.78281 16.4995C10.1748 16.491 10.5479 16.3292 10.8222 16.0489C11.0964 15.7686 11.25 15.3921 11.25 15Z" fill="black"/>
</svg>
