<svg width="24" height="24" viewBox="0 0 24 24" fill="current" xmlns="http://www.w3.org/2000/svg">
<path d="M16.8103 6.06L4.05422 18.8475L3.28125 20.7187L5.1525 19.9458L17.94 7.18968L16.8103 6.06ZM19.3627 3.50812L18.81 4.06031L19.9397 5.19L20.4923 4.63734C20.6374 4.49222 20.7188 4.29546 20.7188 4.09031C20.7188 3.88516 20.6374 3.6884 20.4923 3.54328L20.4572 3.50812C20.3853 3.43625 20.3 3.37923 20.2061 3.34034C20.1122 3.30144 20.0116 3.28142 19.9099 3.28142C19.8083 3.28142 19.7076 3.30144 19.6137 3.34034C19.5198 3.37923 19.4345 3.43625 19.3627 3.50812Z" stroke="current" stroke-width="2.0625" stroke-linecap="round" stroke-linejoin="round"/>
</svg>
