<svg width="24" height="24" viewBox="0 0 24 24" fill="current" xmlns="http://www.w3.org/2000/svg">
<path d="M19.1839 7.80469L16.2189 4.83769C14.1919 2.80769 13.1789 1.79469 12.0899 2.03469C11.0009 2.27469 10.5089 3.62169 9.52188 6.31469L8.85388 8.13769C8.59088 8.85569 8.45888 9.21469 8.22188 9.49269C8.11593 9.61768 7.99502 9.72919 7.86188 9.82469C7.56588 10.0377 7.19788 10.1387 6.46188 10.3417C4.80188 10.7997 3.97088 11.0287 3.65788 11.5717C3.52257 11.8067 3.45217 12.0735 3.45388 12.3447C3.45788 12.9717 4.06688 13.5807 5.28388 14.7997L6.69988 16.2157L2.22388 20.6957C2.08748 20.8403 2.01281 21.0323 2.01571 21.2311C2.0186 21.4298 2.09884 21.6196 2.2394 21.7602C2.37995 21.9007 2.56974 21.981 2.76849 21.9839C2.96724 21.9868 3.15929 21.9121 3.30388 21.7757L7.77888 17.2957L9.24488 18.7637C10.4709 19.9897 11.0839 20.6037 11.7149 20.6037C11.9799 20.6037 12.2409 20.5357 12.4719 20.4037C13.0199 20.0907 13.2499 19.2547 13.7109 17.5817C13.9129 16.8467 14.0139 16.4797 14.2259 16.1827C14.3192 16.0534 14.4265 15.936 14.5479 15.8307C14.8229 15.5927 15.1799 15.4587 15.8929 15.1907L17.7369 14.4977C20.4009 13.4977 21.7329 12.9967 21.9669 11.9117C22.2019 10.8257 21.1969 9.81869 19.1839 7.80469Z" fill="current"/>
</svg>
