<svg width="24" height="24" viewBox="0 0 24 24" fill="none" xmlns="http://www.w3.org/2000/svg">
<path fill-rule="evenodd" clip-rule="evenodd" d="M12.0301 13.7381L4.42206 7.70408C4.16367 7.49941 3.9515 7.2424 3.79949 6.94992C3.64747 6.65744 3.55905 6.33611 3.54003 6.00703C3.521 5.67796 3.57181 5.34858 3.68911 5.04053C3.80641 4.73248 3.98754 4.45273 4.22062 4.21965C4.4537 3.98657 4.73346 3.80543 5.04151 3.68813C5.34955 3.57083 5.67893 3.52003 6.00801 3.53905C6.33709 3.55808 6.65842 3.6465 6.9509 3.79851C7.24338 3.95053 7.50039 4.1627 7.70506 4.42108L13.7391 12.0291C15.0461 11.4581 17.0391 11.3811 18.7181 13.0591C19.7331 14.0751 20.3651 15.3171 20.5811 16.4991C20.7911 17.6491 20.6301 18.9251 19.7781 19.7771C18.9271 20.6291 17.6501 20.7901 16.5011 20.5801C15.3191 20.3641 14.0761 19.7321 13.0611 18.7161C11.3811 17.0371 11.4591 15.0451 12.0301 13.7381Z" fill="current"/>
</svg>
