<svg width="24" height="24" viewBox="0 0 24 24" fill="none" xmlns="http://www.w3.org/2000/svg">
<path fill-rule="evenodd" clip-rule="evenodd" d="M7.70506 4.42108L13.7391 12.0291C15.0461 11.4581 17.0391 11.3811 18.7181 13.0591C19.7331 14.0751 20.3651 15.3171 20.5811 16.4991C20.7911 17.6491 20.6301 18.9251 19.7781 19.7771C18.9271 20.6291 17.6501 20.7901 16.5011 20.5801C15.3191 20.3641 14.0761 19.7321 13.0611 18.7161C11.3811 17.0371 11.4591 15.0451 12.0301 13.7381L4.42206 7.70408C4.16367 7.49941 3.9515 7.2424 3.79949 6.94992C3.64747 6.65744 3.55905 6.33611 3.54003 6.00703C3.521 5.67796 3.57181 5.34858 3.68911 5.04053C3.80641 4.73248 3.98754 4.45273 4.22062 4.21965C4.4537 3.98657 4.73346 3.80543 5.04151 3.68813C5.34955 3.57083 5.67893 3.52003 6.00801 3.53905C6.33709 3.55808 6.65842 3.6465 6.9509 3.79851C7.24338 3.95053 7.50039 4.1627 7.70506 4.42108ZM17.3031 14.4741C16.1031 13.2741 14.7311 13.6521 14.2121 14.0431L14.1201 14.1181L14.0911 14.1531C13.6861 14.6191 13.2271 16.0531 14.4751 17.3031C15.2161 18.0431 16.0951 18.4731 16.8611 18.6131C17.6581 18.7581 18.1551 18.5721 18.3641 18.3631C18.5741 18.1531 18.7601 17.6571 18.6141 16.8591C18.4741 16.0941 18.0441 15.2151 17.3041 14.4741H17.3031ZM5.63606 5.63408C5.60236 5.6677 5.57615 5.70807 5.55918 5.75254C5.54221 5.79701 5.53485 5.84457 5.53759 5.8921C5.54033 5.93962 5.55311 5.98602 5.57508 6.02825C5.59705 6.07047 5.62772 6.10757 5.66506 6.13708L7.95206 7.95108L6.13806 5.66408C6.10862 5.62683 6.07163 5.59622 6.02954 5.57426C5.98744 5.5523 5.94117 5.53949 5.89378 5.53666C5.84638 5.53382 5.79892 5.54104 5.75451 5.55783C5.71009 5.57462 5.66973 5.6006 5.63606 5.63408Z" fill="current"/>
</svg>
