<svg width="567" height="567" viewBox="0 0 567 567" fill="none" xmlns="http://www.w3.org/2000/svg">
<rect x="2" width="565" height="567" rx="114" fill="#7FE5C1"/>
<path d="M500.293 254.509C488.045 237.361 470.472 226.932 450.817 225.137L448.977 224.967C412.765 221.644 376.505 233.577 346.853 258.487C342.617 262.052 338.575 265.86 334.702 269.862L383.137 161.104L423.198 177.961L433.267 153.901L327.222 109.272L317.152 133.333L357.213 150.19L306.429 264.235C305.171 220.043 297.183 170.054 272.081 135.613C253.08 109.539 225.074 92.4394 193.243 87.4672C161.389 82.495 129.534 90.2565 103.513 109.296C77.4914 128.336 60.4264 156.399 55.4642 188.318C50.502 220.213 58.2479 252.156 77.2494 278.23C92.5474 299.211 117.334 318.129 146.575 331.712C144.396 333.337 142.29 335.083 140.257 336.975C130.091 346.41 122.587 358.586 118.569 372.217C106.926 411.534 126.992 452.282 163.301 463.099C172.233 465.743 181.237 467.029 190.169 467.029C230.714 467.029 269.201 440.834 286.798 399.285C289.994 449.129 325.6 489.464 372.608 493.757C374.448 493.927 376.287 494 378.103 494C411.434 494 440.215 466.277 443.531 429.749C444.741 416.409 442.417 403.093 436.802 391.281C436.221 390.044 435.591 388.832 434.962 387.643L436.124 387.74C437.165 387.837 438.205 387.91 439.246 387.934C439.73 387.958 440.239 387.983 440.723 387.983C441.159 387.983 441.594 387.983 442.03 387.983C459.482 387.983 476.402 380.925 489.764 368.094C491.628 366.323 493.419 364.456 495.089 362.491C495.742 361.739 496.372 360.963 497.001 360.163L497.606 359.386C507.821 346.265 514.042 330.232 515.615 313.011C517.552 291.764 512.13 270.978 500.39 254.533L500.293 254.509ZM103.779 258.73C89.9574 239.762 84.3417 216.551 87.9483 193.339C91.555 170.127 103.973 149.729 122.877 135.88C138.054 124.771 155.991 118.95 174.435 118.95C178.986 118.95 183.561 119.314 188.136 120.017C211.301 123.631 231.658 136.074 245.479 155.016C280.989 203.744 274.696 297.319 270.048 336.927L187.482 312.066C152.069 301.393 119.997 280.947 103.779 258.705V258.73ZM261.407 377.311C261.116 378.329 260.802 379.324 260.414 380.415C246.907 420.605 208.13 443.672 172.136 432.975C152.36 427.106 141.758 403.821 148.487 381.094C150.932 372.872 155.41 365.547 161.485 359.92C168.989 352.935 178.163 349.2 187.264 349.2C190.387 349.2 193.534 349.636 196.559 350.558L263.44 370.447L261.407 377.335V377.311ZM414.048 427.009C412.015 449.299 394.611 466.01 375.222 464.215C339.93 460.989 313.982 427.178 316.16 387.134C316.208 386.139 316.281 385.145 316.378 384.15L316.983 377.383L382.556 383.374C394.199 384.442 404.487 392.106 410.054 403.894C413.395 410.928 414.774 418.932 414.048 427.009ZM484.632 310.149C483.615 321.428 479.621 331.833 473.207 340.055L472.578 340.856C472.263 341.244 471.972 341.632 471.513 342.166C470.472 343.403 469.455 344.47 468.317 345.537C460.765 352.813 451.543 356.791 442.224 356.888H440.408C440.408 356.888 440.408 356.864 440.384 356.864H440.093C439.682 356.84 439.271 356.815 438.859 356.767L323.761 346.265C343.513 289.096 393.618 251.089 446.169 255.916L448.009 256.086C458.562 257.056 468.172 262.901 475.095 272.603C482.526 282.984 485.915 296.349 484.656 310.174L484.632 310.149Z" fill="white"/>
<path d="M207.13 220.841C219.54 203.599 215.651 179.541 198.444 167.105C181.237 154.67 157.227 158.567 144.817 175.809C132.406 193.051 136.295 217.109 153.502 229.545C170.71 241.98 194.719 238.083 207.13 220.841Z" fill="white"/>
</svg>
