<svg width="1123" height="387" viewBox="0 0 1123 387" fill="none" xmlns="http://www.w3.org/2000/svg">
<path d="M674.146 330.792H643.018V220.616C614.37 225.916 582.309 229.33 551.498 231.513V324.877H520.369V233.379C490.174 234.926 463.095 235.244 444.414 235.244L441 207.239C485.212 207.239 574.548 205.374 643.018 193.862V56H674.146V330.792ZM453.108 122.016C453.108 89.3049 469.626 57.908 527.812 57.908C585.998 57.908 602.856 89.3049 602.856 122.016C602.856 154.727 586.316 185.149 527.812 185.149C469.308 185.149 453.108 153.413 453.108 122.016ZM569.798 122.016C569.798 100.202 562.185 87.6513 527.812 87.6513C493.439 87.6513 486.166 100.202 486.166 122.016C486.166 143.831 493.779 155.406 527.812 155.406C561.846 155.406 569.798 142.856 569.798 122.016Z" fill="#3A3A3A"/>
<path d="M858.437 104.866H757.587V151.547H855.341V179.552H757.587V236.813C794.017 236.813 831.677 235.562 883.353 225.302L889.587 252.692C827.944 265.136 784.051 264.839 743.274 264.839C732.375 264.839 726.458 258.924 726.458 248.028V76.8394H858.437V104.844V104.866ZM948.091 330.792H916.962V56H948.091V330.792Z" fill="#3A3A3A"/>
<g clip-path="url(#clip0_469_252)">
<path d="M368.143 164.373C358.041 150.293 343.547 141.729 327.336 140.256L325.819 140.116C295.952 137.388 266.045 147.186 241.589 167.639C238.095 170.567 234.761 173.694 231.567 176.98L271.516 87.6784L304.557 101.52L312.862 81.7635L225.398 45.1188L217.093 64.8751L250.134 78.7164L208.248 172.359C207.21 136.073 200.622 95.0273 179.919 66.7471C164.207 45.318 141.108 31.2974 114.855 27.2147C88.582 23.132 62.3089 29.505 40.8472 45.1387C19.3655 60.7725 5.29063 83.8148 1.2179 110.004C-2.8748 136.193 3.5138 162.422 19.1858 183.831C31.8033 201.058 52.2468 216.592 76.3638 227.745C74.567 229.079 72.8301 230.513 71.1531 232.066C62.768 239.814 56.5791 249.811 53.265 261.004C43.6621 293.287 60.2126 326.745 90.1592 335.627C97.526 337.798 104.953 338.854 112.32 338.854C145.76 338.854 177.503 317.345 192.017 283.23C194.653 324.156 224.02 357.276 262.791 360.801C264.308 360.94 265.826 361 267.323 361C294.814 361 318.552 338.236 321.287 308.243C322.285 297.29 320.368 286.356 315.737 276.657C315.257 275.642 314.738 274.646 314.219 273.67L315.178 273.75C316.036 273.829 316.895 273.889 317.753 273.909C318.152 273.929 318.572 273.949 318.971 273.949C319.33 273.949 319.69 273.949 320.049 273.949C334.443 273.949 348.398 268.153 359.419 257.618C360.956 256.164 362.433 254.631 363.811 253.018C364.35 252.4 364.869 251.763 365.388 251.106L365.887 250.468C374.312 239.694 379.443 226.53 380.741 212.39C382.338 194.944 377.866 177.876 368.183 164.373H368.143ZM41.0867 167.859C29.6871 152.285 25.0554 133.225 28.03 114.166C31.0047 95.1069 41.2465 78.3579 56.8386 66.9861C69.3563 57.8648 84.1499 53.085 99.3627 53.085C103.116 53.085 106.889 53.3838 110.663 53.9613C129.768 56.9287 146.559 67.1454 157.958 82.6995C187.246 122.71 182.055 199.544 178.222 232.066L110.124 211.653C80.9157 202.89 54.4629 186.101 41.0867 167.839V167.859ZM171.115 265.226C170.875 266.062 170.616 266.879 170.296 267.775C159.156 300.775 127.173 319.715 97.4861 310.932C81.1752 306.113 72.4308 286.994 77.9809 268.333C79.9973 261.581 83.6907 255.567 88.7018 250.946C94.8907 245.211 102.457 242.144 109.964 242.144C112.539 242.144 115.135 242.502 117.63 243.259L172.792 259.59L171.115 265.246V265.226ZM296.99 306.033C295.313 324.335 280.959 338.057 264.967 336.583C235.859 333.935 214.457 306.172 216.254 273.292C216.294 272.475 216.354 271.659 216.434 270.842L216.933 265.286L271.016 270.205C280.619 271.081 289.104 277.374 293.696 287.053C296.451 292.829 297.589 299.401 296.99 306.033ZM355.206 210.08C354.368 219.34 351.073 227.884 345.783 234.635L345.264 235.293C345.004 235.611 344.765 235.93 344.385 236.368C343.527 237.384 342.688 238.26 341.75 239.136C335.521 245.111 327.915 248.377 320.229 248.457H318.731C318.731 248.457 318.731 248.437 318.711 248.437H318.472C318.132 248.417 317.793 248.397 317.453 248.357L222.523 239.734C238.814 192.793 280.14 161.585 323.483 165.548L325 165.688C333.704 166.484 341.63 171.284 347.34 179.25C353.469 187.774 356.264 198.748 355.226 210.099L355.206 210.08Z" fill="#7FE5C1"/>
<path d="M126.335 136.744C136.571 122.586 133.363 102.832 119.171 92.6213C104.979 82.4105 85.176 85.61 74.9402 99.7676C64.7045 113.925 67.9118 133.68 82.104 143.89C96.2963 154.101 116.099 150.902 126.335 136.744Z" fill="#7FE5C1"/>
</g>
<defs>
<clipPath id="clip0_469_252">
<rect width="381" height="335" fill="white" transform="translate(0 26)"/>
</clipPath>
</defs>
</svg>
