<svg width="263" height="231" viewBox="0 0 263 231" fill="none" xmlns="http://www.w3.org/2000/svg">
<g clip-path="url(#clip0_1652_3500)">
<path d="M254.118 95.4087C247.145 85.6996 237.139 79.7945 225.949 78.7783L224.902 78.6821C204.285 76.8007 183.641 83.5573 166.759 97.6609C164.347 99.6796 162.046 101.836 159.841 104.102L187.417 42.5236L210.225 52.0679L215.958 38.4449L155.582 13.1765L149.85 26.7995L172.657 36.3438L143.744 100.916C143.028 75.8944 138.48 47.591 124.189 28.0904C113.343 13.3138 97.3983 3.64593 79.2761 0.830697C61.1401 -1.98453 43.004 2.40997 28.1893 13.1902C13.3607 23.9705 3.64498 39.8594 0.833622 57.9181C-1.99152 75.9768 2.41846 94.0629 13.2367 108.826C21.9464 120.705 36.0583 131.416 52.706 139.107C51.4657 140.027 50.2667 141.015 49.1091 142.087C43.321 147.429 39.0488 154.323 36.7612 162.04C30.1324 184.301 41.557 207.373 62.2288 213.497C67.314 214.994 72.4406 215.722 77.5259 215.722C100.609 215.722 122.521 200.891 132.54 177.366C134.359 205.587 154.632 228.425 181.395 230.856C182.442 230.952 183.489 230.993 184.523 230.993C203.5 230.993 219.885 215.296 221.773 194.615C222.463 187.062 221.14 179.522 217.942 172.834C217.612 172.134 217.253 171.447 216.895 170.775L217.556 170.829C218.149 170.884 218.742 170.926 219.334 170.939C219.61 170.953 219.899 170.967 220.175 170.967C220.423 170.967 220.671 170.967 220.919 170.967C230.855 170.967 240.488 166.971 248.096 159.706C249.157 158.703 250.176 157.646 251.127 156.534C251.499 156.108 251.858 155.668 252.216 155.215L252.561 154.776C258.376 147.346 261.918 138.269 262.814 128.519C263.916 116.489 260.829 104.72 254.145 95.4087H254.118ZM28.3546 97.812C20.4856 87.0729 17.2883 73.9306 19.3417 60.7882C21.3951 47.6459 28.4649 36.0966 39.228 28.2552C47.8688 21.9655 58.0806 18.6696 68.5819 18.6696C71.1728 18.6696 73.7774 18.8756 76.382 19.2739C89.5706 21.3201 101.161 28.365 109.03 39.0904C129.247 66.6796 125.664 119.661 123.018 142.087L76.0099 128.01C55.8481 121.968 37.588 110.391 28.3546 97.7982V97.812ZM118.111 164.952C117.946 165.529 117.767 166.092 117.546 166.71C109.857 189.465 87.7791 202.525 67.2865 196.469C56.0272 193.145 49.9911 179.962 53.8223 167.094C55.2142 162.439 57.7637 158.291 61.2227 155.105C65.4949 151.15 70.718 149.035 75.8997 149.035C77.6775 149.035 79.469 149.283 81.1917 149.804L119.269 161.065L118.111 164.966V164.952ZM205.002 193.09C203.844 205.711 193.935 215.173 182.897 214.157C162.804 212.33 148.03 193.186 149.271 170.514C149.298 169.951 149.34 169.387 149.395 168.824L149.739 164.993L187.072 168.385C193.701 168.989 199.558 173.329 202.728 180.003C204.63 183.986 205.415 188.517 205.002 193.09ZM245.188 126.926C244.609 133.311 242.335 139.203 238.683 143.858L238.325 144.311C238.146 144.531 237.98 144.751 237.718 145.053C237.126 145.753 236.547 146.358 235.899 146.962C231.599 151.082 226.349 153.334 221.043 153.389H220.009C220.009 153.389 220.009 153.375 219.996 153.375H219.83C219.596 153.361 219.362 153.348 219.127 153.32L153.598 147.374C164.843 115.005 193.37 93.4861 223.289 96.219L224.337 96.3151C230.345 96.8644 235.816 100.174 239.758 105.667C243.989 111.545 245.918 119.112 245.201 126.939L245.188 126.926Z" fill="#7FE5C1"/>
</g>
<defs>
<clipPath id="clip0_1652_3500">
<rect width="263" height="230.993" fill="white"/>
</clipPath>
</defs>
</svg>
