<svg width="381" height="335" viewBox="0 0 381 335" fill="none" xmlns="http://www.w3.org/2000/svg">
<g clip-path="url(#clip0_692_488)">
<path d="M368.143 138.373C358.041 124.293 343.547 115.729 327.336 114.256L325.819 114.116C295.952 111.388 266.045 121.186 241.589 141.639C238.095 144.567 234.761 147.694 231.567 150.98L271.516 61.6784L304.557 75.5197L312.862 55.7635L225.398 19.1188L217.093 38.8751L250.134 52.7164L208.248 146.359C207.21 110.073 200.622 69.0273 179.919 40.7471C164.207 19.318 141.108 5.29739 114.855 1.2147C88.582 -2.86799 62.3089 3.50499 40.8472 19.1387C19.3655 34.7725 5.29063 57.8148 1.2179 84.0038C-2.8748 110.193 3.5138 136.422 19.1858 157.831C31.8033 175.058 52.2468 190.592 76.3638 201.745C74.567 203.079 72.8301 204.513 71.1531 206.066C62.768 213.814 56.5791 223.811 53.265 235.004C43.6621 267.287 60.2126 300.745 90.1592 309.627C97.526 311.798 104.953 312.854 112.32 312.854C145.76 312.854 177.503 291.345 192.017 257.23C194.653 298.156 224.02 331.276 262.791 334.801C264.308 334.94 265.826 335 267.323 335C294.814 335 318.552 312.236 321.287 282.243C322.285 271.29 320.368 260.356 315.737 250.657C315.257 249.642 314.738 248.646 314.219 247.67L315.178 247.75C316.036 247.829 316.895 247.889 317.753 247.909C318.152 247.929 318.572 247.949 318.971 247.949C319.33 247.949 319.69 247.949 320.049 247.949C334.443 247.949 348.398 242.153 359.419 231.618C360.956 230.164 362.433 228.631 363.811 227.018C364.35 226.4 364.869 225.763 365.388 225.106L365.887 224.468C374.312 213.694 379.443 200.53 380.741 186.39C382.338 168.944 377.866 151.876 368.183 138.373H368.143ZM41.0867 141.859C29.6871 126.285 25.0554 107.225 28.03 88.1661C31.0047 69.1069 41.2465 52.3579 56.8386 40.9861C69.3563 31.8648 84.1499 27.085 99.3627 27.085C103.116 27.085 106.889 27.3838 110.663 27.9613C129.768 30.9287 146.559 41.1454 157.958 56.6995C187.246 96.7099 182.055 173.544 178.222 206.066L110.124 185.653C80.9157 176.89 54.4629 160.101 41.0867 141.839V141.859ZM171.115 239.226C170.875 240.062 170.616 240.879 170.296 241.775C159.156 274.775 127.173 293.715 97.4861 284.932C81.1752 280.113 72.4308 260.994 77.9809 242.333C79.9973 235.581 83.6907 229.567 88.7018 224.946C94.8907 219.211 102.457 216.144 109.964 216.144C112.539 216.144 115.135 216.502 117.63 217.259L172.792 233.59L171.115 239.246V239.226ZM296.99 280.033C295.313 298.335 280.959 312.057 264.967 310.583C235.859 307.935 214.457 280.172 216.254 247.292C216.294 246.475 216.354 245.659 216.434 244.842L216.933 239.286L271.016 244.205C280.619 245.081 289.104 251.374 293.696 261.053C296.451 266.829 297.589 273.401 296.99 280.033ZM355.206 184.08C354.368 193.34 351.073 201.884 345.783 208.635L345.264 209.293C345.004 209.611 344.765 209.93 344.385 210.368C343.527 211.384 342.688 212.26 341.75 213.136C335.521 219.111 327.915 222.377 320.229 222.457H318.731C318.731 222.457 318.731 222.437 318.711 222.437H318.472C318.132 222.417 317.793 222.397 317.453 222.357L222.523 213.734C238.814 166.793 280.14 135.585 323.483 139.548L325 139.688C333.704 140.484 341.63 145.284 347.34 153.25C353.469 161.774 356.264 172.748 355.226 184.099L355.206 184.08Z" fill="#7FE5C1"/>
<path d="M126.335 110.744C136.571 96.5864 133.363 76.832 119.171 66.6213C104.979 56.4105 85.176 59.61 74.9402 73.7676C64.7045 87.9251 67.9118 107.68 82.104 117.89C96.2963 128.101 116.099 124.902 126.335 110.744Z" fill="#7FE5C1"/>
</g>
<defs>
<clipPath id="clip0_692_488">
<rect width="381" height="335" fill="white"/>
</clipPath>
</defs>
</svg>
