<svg width="1402" height="539" viewBox="0 0 1402 539" fill="none" xmlns="http://www.w3.org/2000/svg">
<path d="M837.444 327.395H807.611V221.797C780.156 226.877 749.428 230.148 719.9 232.241V321.726H690.067V234.029C661.128 235.512 635.176 235.817 617.272 235.817L614 208.976C656.372 208.976 741.99 207.188 807.611 196.154V64H837.444V327.374V327.395ZM625.604 127.294C625.604 95.9414 641.435 65.849 697.2 65.849C752.964 65.849 769.121 95.9414 769.121 127.294C769.121 158.646 753.269 187.803 697.2 187.803C641.13 187.803 625.604 157.386 625.604 127.294ZM737.438 127.294C737.438 106.385 730.142 94.3565 697.2 94.3565C664.257 94.3565 657.287 106.385 657.287 127.294C657.287 148.202 664.582 159.296 697.2 159.296C729.817 159.296 737.438 147.267 737.438 127.294Z" fill="#3A3A3A"/>
<path d="M1014.07 110.835H917.413V155.578H1011.1V182.419H917.413V237.3C952.327 237.3 988.419 236.102 1037.95 226.267L1043.92 252.519C984.843 264.446 942.775 264.162 903.695 264.162C893.25 264.162 887.58 258.493 887.58 248.049V83.9938H1014.07V110.835ZM1099.99 327.395H1070.16V64H1099.99V327.374V327.395Z" fill="#3A3A3A"/>
<path d="M625.604 393.551H642.289L657.022 476.27L683.096 393.551H699.781L725.204 476.27L740.588 393.551H755.647L736.219 506.85H718.741L691.55 420.088L664.196 506.85H646.719L625.665 393.551H625.604Z" fill="#3A3A3A"/>
<path d="M765.971 397.92C765.971 392.088 769.039 387.395 776.498 387.395C783.956 387.395 787.025 392.088 787.025 397.92C787.025 403.751 783.956 408.445 776.498 408.445C769.039 408.445 765.971 403.751 765.971 397.92ZM784.586 506.85H768.389V422.851H784.586V506.85Z" fill="#3A3A3A"/>
<path d="M824.723 388.37V422.689H848.033V437.908H824.723V479.5C824.723 489.375 826.674 497.788 849.984 492.119L853.865 506.362C813.383 515.912 808.526 491.631 808.526 479.5V437.908H797.349V422.689H808.526V388.37H824.723Z" fill="#3A3A3A"/>
<path d="M881.239 434.494C887.072 424.944 895.81 420.576 904.874 420.576C925.44 420.576 933.691 433.681 933.691 464.607V506.85H917.494V464.607C917.494 442.764 915.543 435.144 903.248 435.144C890.953 435.144 881.239 442.743 881.239 464.607V506.85H865.042V390.3H881.239V434.494Z" fill="#3A3A3A"/>
<path d="M1020.12 408.12V506.85H1003.93V408.12H972.202V393.551H1051.68V408.12H1020.12Z" fill="#3A3A3A"/>
<path d="M1062.05 397.92C1062.05 392.088 1065.12 387.395 1072.57 387.395C1080.03 387.395 1083.1 392.088 1083.1 397.92C1083.1 403.751 1080.03 408.445 1072.57 408.445C1065.12 408.445 1062.05 403.751 1062.05 397.92ZM1080.68 506.85H1064.49V422.851H1080.68V506.85Z" fill="#3A3A3A"/>
<path d="M1118.56 434.006C1124.23 424.781 1132.48 420.575 1141.39 420.575C1155.31 420.575 1163.88 426.57 1168.11 440C1173.29 426.57 1183.17 420.575 1193.86 420.575C1214.42 420.575 1223.49 433.681 1223.49 464.607V506.85H1207.29V464.607C1207.29 442.764 1204.55 435.144 1192.23 435.144C1179.92 435.144 1171.02 442.743 1171.02 464.607V506.85H1154.82V464.607C1154.82 442.764 1152.08 435.144 1139.76 435.144C1127.44 435.144 1118.54 442.743 1118.54 464.607V506.85H1102.35V422.526H1118.54V434.027L1118.56 434.006Z" fill="#3A3A3A"/>
<path d="M1272.99 508.8C1252.43 508.8 1236.25 495.532 1236.25 464.607C1236.25 433.681 1252.45 420.413 1272.99 420.413C1293.54 420.413 1305.86 436.282 1305.86 468.487H1252.59C1253.4 487.1 1261.33 494.232 1272.99 494.232C1281.08 494.232 1286.75 491.163 1290.31 482.894L1305.2 488.725C1299.37 502.319 1286.91 508.8 1272.99 508.8ZM1289.03 455.544C1287.08 440.163 1281.43 434.982 1272.99 434.982C1262.47 434.982 1255.03 440.813 1253.08 455.544H1289.03Z" fill="#3A3A3A"/>
<rect x="2" y="11" width="521" height="523" rx="114" fill="#7FE5C1"/>
<path d="M458.625 247.131C447.491 231.577 431.516 222.117 413.649 220.489L411.976 220.335C379.058 217.321 346.096 228.145 319.141 250.739C315.29 253.974 311.616 257.428 308.095 261.058L352.125 162.408L388.542 177.698L397.696 155.874L301.296 115.393L292.142 137.217L328.559 152.508L282.394 255.954C281.25 215.869 273.989 170.526 251.17 139.286C233.897 115.635 208.438 100.125 179.503 95.6147C150.546 91.1047 121.588 98.1448 97.934 115.415C74.2796 132.685 58.7667 158.14 54.2558 187.092C49.745 216.023 56.7863 244.997 74.0595 268.648C87.9661 287.678 110.498 304.838 137.079 317.159C135.099 318.633 133.185 320.217 131.336 321.933C122.094 330.491 115.273 341.535 111.62 353.899C101.037 389.562 119.278 426.523 152.284 436.335C160.404 438.733 168.589 439.899 176.709 439.899C213.565 439.899 248.552 416.138 264.549 378.452C267.453 423.663 299.822 460.249 342.553 464.143C344.226 464.297 345.898 464.363 347.548 464.363C377.848 464.363 404.011 439.217 407.025 406.084C408.126 393.984 406.013 381.906 400.908 371.192C400.38 370.07 399.808 368.97 399.236 367.892L400.292 367.98C401.238 368.068 402.185 368.134 403.131 368.156C403.571 368.178 404.033 368.2 404.473 368.2C404.869 368.2 405.265 368.2 405.661 368.2C421.526 368.2 436.907 361.797 449.053 350.159C450.748 348.553 452.376 346.859 453.894 345.077C454.488 344.395 455.06 343.691 455.632 342.965L456.183 342.261C465.468 330.359 471.123 315.817 472.554 300.196C474.314 280.924 469.385 262.07 458.713 247.153L458.625 247.131ZM98.176 250.959C85.6117 233.755 80.5067 212.701 83.7853 191.646C87.0639 170.592 98.352 152.09 115.537 139.528C129.334 129.451 145.639 124.171 162.406 124.171C166.543 124.171 170.701 124.501 174.86 125.139C195.918 128.417 214.424 139.704 226.988 156.886C259.268 201.085 253.547 285.962 249.322 321.889L174.266 299.338C142.074 289.658 112.919 271.112 98.176 250.937V250.959ZM241.467 358.519C241.203 359.443 240.917 360.345 240.564 361.335C228.286 397.79 193.036 418.712 160.316 409.01C142.338 403.686 132.7 382.566 138.818 361.951C141.04 354.493 145.111 347.849 150.634 342.745C157.455 336.409 165.795 333.021 174.068 333.021C176.907 333.021 179.767 333.417 182.518 334.253L243.315 352.293L241.467 358.541V358.519ZM380.224 403.598C378.376 423.816 362.555 438.975 344.93 437.347C312.848 434.421 289.26 403.752 291.24 367.43C291.284 366.528 291.35 365.625 291.438 364.723L291.988 358.585L351.597 364.019C362.181 364.987 371.533 371.94 376.594 382.632C379.63 389.012 380.885 396.272 380.224 403.598ZM444.388 297.6C443.464 307.83 439.834 317.269 434.002 324.727L433.43 325.453C433.144 325.805 432.88 326.157 432.462 326.641C431.516 327.763 430.592 328.731 429.558 329.699C422.692 336.299 414.309 339.907 405.837 339.995H404.187C404.187 339.995 404.187 339.973 404.165 339.973H403.901C403.527 339.951 403.153 339.929 402.779 339.885L298.149 330.359C316.105 278.504 361.653 244.029 409.424 248.407L411.096 248.561C420.69 249.441 429.426 254.744 435.719 263.544C442.474 272.96 445.555 285.082 444.41 297.622L444.388 297.6Z" fill="white"/>
<path d="M192.127 216.593C203.408 200.953 199.873 179.131 184.231 167.851C168.589 156.571 146.763 160.106 135.481 175.745C124.2 191.385 127.735 213.207 143.377 224.487C159.019 235.767 180.845 232.232 192.127 216.593Z" fill="white"/>
</svg>
