<svg width="324" height="64" viewBox="0 0 324 64" fill="none" xmlns="http://www.w3.org/2000/svg">
<g clip-path="url(#clip0_1646_1294)">
<path d="M70.5366 26.4355C68.601 23.7456 65.824 22.1095 62.7179 21.828L62.4272 21.8013C56.7047 21.2801 50.9745 23.152 46.2887 27.0595C45.6193 27.6188 44.9805 28.2162 44.3684 28.844L52.0226 11.7834L58.3533 14.4277L59.9446 10.6534L43.1864 3.65259L41.5952 7.42692L47.9259 10.0712L39.9006 27.9612C39.7017 21.029 38.4394 13.1873 34.4727 7.78457C31.4622 3.69064 27.0365 1.01208 22.0063 0.232103C16.9724 -0.547874 11.9384 0.669651 7.82635 3.65639C3.71044 6.64314 1.01368 11.0453 0.233339 16.0485C-0.550826 21.0518 0.673236 26.0627 3.67601 30.1528C6.09354 33.4439 10.0105 36.4116 14.6314 38.5423C14.2871 38.7972 13.9543 39.0712 13.633 39.3679C12.0264 40.848 10.8406 42.758 10.2056 44.8963C8.3657 51.0638 11.5368 57.4558 17.2746 59.1527C18.6861 59.5675 20.109 59.7691 21.5205 59.7691C27.9277 59.7691 34.0098 55.66 36.7907 49.1424C37.2956 56.9612 42.9225 63.2885 50.351 63.962C50.6418 63.9886 50.9325 64 51.2194 64C56.4866 64 61.0348 59.6512 61.5589 53.9212C61.7501 51.8286 61.3829 49.7397 60.4954 47.8868C60.4036 47.6928 60.3042 47.5025 60.2047 47.3161L60.3883 47.3313C60.5528 47.3465 60.7173 47.358 60.8818 47.3618C60.9583 47.3656 61.0386 47.3694 61.1151 47.3694C61.184 47.3694 61.2528 47.3694 61.3217 47.3694C64.0797 47.3694 66.7535 46.2622 68.865 44.2495C69.1595 43.9717 69.4426 43.6787 69.7065 43.3706C69.8098 43.2526 69.9093 43.1309 70.0087 43.0053L70.1043 42.8835C71.7186 40.8252 72.7016 38.3102 72.9503 35.6088C73.2563 32.2759 72.3995 29.0152 70.5442 26.4355H70.5366ZM7.87225 27.1014C5.68807 24.126 4.80062 20.4849 5.37057 16.8437C5.94053 13.2026 7.90285 10.0027 10.8903 7.83022C13.2887 6.08764 16.1232 5.1745 19.038 5.1745C19.7571 5.1745 20.4801 5.23157 21.2031 5.34191C24.8638 5.90882 28.0808 7.86066 30.2649 10.8322C35.8765 18.476 34.8819 33.1548 34.1475 39.3679L21.0998 35.4681C15.5035 33.794 10.4351 30.5865 7.87225 27.0976V27.1014ZM32.7857 45.7029C32.7398 45.8627 32.6901 46.0187 32.6289 46.1899C30.4944 52.4944 24.3665 56.1127 18.6784 54.4348C15.5532 53.5141 13.8778 49.8615 14.9412 46.2964C15.3276 45.0066 16.0352 43.8576 16.9953 42.9749C18.1812 41.8791 19.6309 41.2932 21.0692 41.2932C21.5626 41.2932 22.0599 41.3616 22.538 41.5062L33.1071 44.6261L32.7857 45.7067V45.7029ZM56.9036 53.4988C56.5823 56.9954 53.832 59.6169 50.768 59.3354C45.1908 58.8293 41.0902 53.5255 41.4345 47.2438C41.4422 47.0878 41.4536 46.9318 41.4689 46.7758L41.5646 45.7143L51.927 46.6541C53.7669 46.8215 55.3926 48.0238 56.2724 49.8729C56.8003 50.9763 57.0183 52.2319 56.9036 53.4988ZM68.0579 35.1675C67.8972 36.9367 67.266 38.5689 66.2524 39.8588L66.1529 39.9843C66.1032 40.0452 66.0573 40.1061 65.9846 40.1898C65.8201 40.3838 65.6595 40.5512 65.4797 40.7186C64.2862 41.8601 62.8288 42.484 61.3561 42.4993H61.0692C61.0692 42.4993 61.0692 42.4955 61.0654 42.4955H61.0195C60.9545 42.4917 60.8894 42.4879 60.8244 42.4802L42.6356 40.8328C45.757 31.8649 53.6751 25.9029 61.9796 26.66L62.2703 26.6866C63.9381 26.8388 65.4567 27.7558 66.5507 29.2777C67.7251 30.9061 68.2606 33.0026 68.0617 35.1713L68.0579 35.1675Z" fill="#7FE5C1"/>
<path d="M24.2049 21.157C26.1661 18.4523 25.5516 14.6783 22.8323 12.7276C20.1131 10.7769 16.3189 11.3882 14.3577 14.0929C12.3965 16.7976 13.011 20.5716 15.7303 22.5223C18.4495 24.473 22.2438 23.8618 24.2049 21.157Z" fill="#7FE5C1"/>
</g>
<path d="M128.081 55H122.863V36.5581C118.061 37.4453 112.687 38.0166 107.522 38.3821V54.01H102.304V38.6944C97.2427 38.9534 92.7037 39.0066 89.5723 39.0066L89 34.319C96.4109 34.319 111.386 34.0067 122.863 32.0798V9H128.081V54.9965V55ZM91.0296 20.0538C91.0296 14.5783 93.7984 9.32292 103.552 9.32292C113.305 9.32292 116.131 14.5783 116.131 20.0538C116.131 25.5292 113.358 30.6214 103.552 30.6214C93.7451 30.6214 91.0296 25.3092 91.0296 20.0538ZM110.589 20.0538C110.589 16.4023 109.313 14.3015 103.552 14.3015C97.79 14.3015 96.5709 16.4023 96.5709 20.0538C96.5709 23.7052 97.8469 25.6428 103.552 25.6428C109.257 25.6428 110.589 23.542 110.589 20.0538Z" fill="#3A3A3A"/>
<path d="M158.972 17.1794H142.067V24.9934H158.453V29.681H142.067V39.2657C148.174 39.2657 154.487 39.0563 163.149 37.3388L164.194 41.9235C153.861 44.0066 146.503 43.9569 139.668 43.9569C137.841 43.9569 136.85 42.9668 136.85 41.1429V12.4918H158.972V17.1794ZM174 55H168.782V9H174V54.9965V55Z" fill="#3A3A3A"/>
<path d="M190 32.2168H193.287L196.189 48.5692L201.325 32.2168H204.612L209.62 48.5692L212.651 32.2168H215.617L211.79 54.6145H208.347L202.991 37.4627L197.602 54.6145H194.159L190.012 32.2168H190Z" fill="#3A3A3A"/>
<path d="M217.65 33.0807C217.65 31.9279 218.255 31 219.724 31C221.193 31 221.798 31.9279 221.798 33.0807C221.798 34.2335 221.193 35.1614 219.724 35.1614C218.255 35.1614 217.65 34.2335 217.65 33.0807ZM221.317 54.6148H218.127V38.0093H221.317V54.6148Z" fill="#3A3A3A"/>
<path d="M229.224 31.1953V37.9797H233.816V40.9883H229.224V49.2107C229.224 51.1628 229.609 52.8258 234.201 51.7051L234.965 54.5209C226.991 56.4088 226.034 51.6087 226.034 49.2107V40.9883H223.832V37.9797H226.034V31.1953H229.224Z" fill="#3A3A3A"/>
<path d="M240.357 40.3098C241.506 38.4219 243.227 37.5583 245.012 37.5583C249.064 37.5583 250.689 40.1491 250.689 46.2627V54.6136H247.498V46.2627C247.498 41.9446 247.114 40.4383 244.692 40.4383C242.27 40.4383 240.357 41.9406 240.357 46.2627V54.6136H237.166V31.5732H240.357V40.3098Z" fill="#3A3A3A"/>
<path d="M267.715 35.0968V54.6145H264.525V35.0968H258.275V32.2168H273.932V35.0968H267.715Z" fill="#3A3A3A"/>
<path d="M275.975 33.0807C275.975 31.9279 276.579 31 278.048 31C279.518 31 280.122 31.9279 280.122 33.0807C280.122 34.2335 279.518 35.1614 278.048 35.1614C276.579 35.1614 275.975 34.2335 275.975 33.0807ZM279.646 54.6148H276.455V38.0093H279.646V54.6148Z" fill="#3A3A3A"/>
<path d="M287.109 40.2147C288.226 38.391 289.851 37.5596 291.604 37.5596C294.347 37.5596 296.036 38.7445 296.869 41.3996C297.889 38.7445 299.835 37.5596 301.941 37.5596C305.992 37.5596 307.778 40.1504 307.778 46.264V54.6149H304.587V46.264C304.587 41.9459 304.047 40.4396 301.621 40.4396C299.195 40.4396 297.441 41.9419 297.441 46.264V54.6149H294.25V46.264C294.25 41.9459 293.71 40.4396 291.284 40.4396C288.858 40.4396 287.105 41.9419 287.105 46.264V54.6149H283.914V37.9452H287.105V40.2187L287.109 40.2147Z" fill="#3A3A3A"/>
<path d="M317.527 55.0004C313.476 55.0004 310.289 52.3774 310.289 46.2639C310.289 40.1503 313.48 37.5273 317.527 37.5273C321.574 37.5273 324 40.6645 324 47.0311H313.508C313.668 50.7105 315.229 52.1204 317.527 52.1204C319.12 52.1204 320.237 51.5138 320.938 49.879L323.872 51.0318C322.723 53.7191 320.269 55.0004 317.527 55.0004ZM320.686 44.4724C320.301 41.4317 319.188 40.4074 317.527 40.4074C315.453 40.4074 313.988 41.5602 313.604 44.4724H320.686Z" fill="#3A3A3A"/>
<defs>
<clipPath id="clip0_1646_1294">
<rect width="73" height="64" fill="white"/>
</clipPath>
</defs>
</svg>
