<svg width="56" height="56" viewBox="0 0 56 56" fill="none" xmlns="http://www.w3.org/2000/svg">
<path d="M30.3383 14.605C37.7303 14.605 41.9257 19.498 42.5347 25.4083H42.7213C43.8513 25.4068 44.9705 25.6279 46.015 26.0589C47.0595 26.49 48.0088 27.1226 48.8088 27.9207C49.6088 28.7187 50.2437 29.6665 50.6773 30.7099C51.111 31.7534 51.3348 32.872 51.336 34.002C51.3345 35.1317 51.1104 36.2501 50.6767 37.2933C50.2429 38.3365 49.6079 39.284 48.808 40.0818C48.0081 40.8796 47.0588 41.512 46.0145 41.9429C44.9701 42.3738 43.8511 42.5949 42.7213 42.5933H17.953C16.8232 42.5949 15.7042 42.3738 14.6599 41.9429C13.6155 41.512 12.6663 40.8796 11.8664 40.0818C11.0664 39.284 10.4314 38.3365 9.99767 37.2933C9.56391 36.2501 9.33987 35.1317 9.33834 34.002C9.33957 32.872 9.56338 31.7534 9.997 30.7099C10.4306 29.6665 11.0656 28.7187 11.8655 27.9207C12.6655 27.1226 13.6149 26.49 14.6594 26.0589C15.7039 25.6279 16.8231 25.4068 17.953 25.4083H18.1397C18.7533 19.4583 22.9463 14.605 30.3383 14.605ZM30.3383 18.098C25.5037 18.098 21.292 21.9107 21.292 27.1747C21.292 28.0077 20.5477 28.6633 19.696 28.6633H18.086C15.1413 28.6633 12.7567 30.9967 12.7567 33.8807C12.7567 36.7623 15.1413 39.098 18.0837 39.098H42.5907C45.533 39.098 47.9177 36.7647 47.9177 33.8807C47.9177 30.999 45.533 28.6633 42.5907 28.6633H40.9807C40.1267 28.6633 39.3823 28.01 39.3823 27.1747C39.3823 21.843 35.1707 18.098 30.3383 18.098ZM23.3337 7.58398C27.1067 7.58398 30.4503 9.48565 32.4337 12.3953C31.7381 12.3148 31.0386 12.2735 30.3383 12.2717C29.4159 12.2717 28.53 12.3378 27.6807 12.47C26.648 11.7381 25.4471 11.2789 24.1895 11.1351C22.932 10.9913 21.6584 11.1676 20.4872 11.6475C19.316 12.1275 18.2849 12.8956 17.4899 13.8805C16.6948 14.8654 16.1615 16.0352 15.9393 17.2813L15.769 18.2473C15.6741 18.7879 15.3916 19.2777 14.9712 19.6307C14.5509 19.9836 14.0195 20.177 13.4707 20.177H12.3273C11.5052 20.1761 10.7012 20.419 10.0171 20.875C9.3329 21.3309 8.79927 21.9795 8.48362 22.7386C8.16797 23.4978 8.08446 24.3335 8.24366 25.1401C8.40285 25.9467 8.7976 26.688 9.37801 27.2703C8.64301 28.2037 8.05968 29.2653 7.66301 30.4133C6.42254 29.4619 5.50296 28.1537 5.02781 26.6643C4.55266 25.175 4.54471 23.5759 5.00503 22.0819C5.46535 20.5879 6.37188 19.2705 7.60284 18.3068C8.83379 17.3431 10.3302 16.7793 11.891 16.691L12.4907 16.677C12.9419 14.129 14.2758 11.8213 16.2585 10.1586C18.2412 8.49585 20.7461 7.58437 23.3337 7.58398Z" fill="#212121"/>
</svg>
