<svg width="56" height="56" viewBox="0 0 56 56" fill="none" xmlns="http://www.w3.org/2000/svg">
<path d="M18.0717 45.5004H37.9073C38.3507 45.5006 38.7775 45.669 39.1015 45.9717C39.4255 46.2744 39.6225 46.6888 39.6527 47.1312C39.683 47.5735 39.5441 48.0108 39.2643 48.3548C38.9845 48.6987 38.5846 48.9237 38.1453 48.9841L37.9073 49.0004H18.0717C17.6283 49.0003 17.2015 48.8319 16.8775 48.5292C16.5535 48.2265 16.3565 47.8121 16.3263 47.3697C16.2961 46.9274 16.4349 46.49 16.7147 46.1461C16.9945 45.8021 17.3944 45.5772 17.8337 45.5168L18.0717 45.5004ZM11.0833 38.5471H44.9167C45.3573 38.5512 45.7801 38.7214 46.1007 39.0237C46.4214 39.326 46.6161 39.7381 46.6462 40.1777C46.6762 40.6173 46.5394 41.052 46.2629 41.3951C45.9864 41.7382 45.5906 41.9644 45.1547 42.0284L44.9167 42.0448H11.0833C10.6399 42.0446 10.2131 41.8762 9.88915 41.5735C9.56517 41.2708 9.36816 40.8564 9.33794 40.4141C9.30772 39.9717 9.44654 39.5344 9.72634 39.1904C10.0062 38.8465 10.4061 38.6215 10.8453 38.5611L11.0833 38.5471ZM28 7.00977C35.3943 7.00977 39.5873 11.9028 40.1963 17.8131H40.383C41.5134 17.8113 42.633 18.0322 43.6779 18.4633C44.7228 18.8944 45.6726 19.5271 46.4728 20.3254C47.2731 21.1237 47.9082 22.0719 48.3418 23.1158C48.7754 24.1597 48.9991 25.2787 49 26.4091C48.9985 27.5391 48.7744 28.6576 48.3405 29.701C47.9066 30.7443 47.2714 31.6919 46.4712 32.4898C45.671 33.2876 44.7215 33.9199 43.6768 34.3507C42.6322 34.7815 41.513 35.0023 40.383 35.0004H15.617C14.487 35.0023 13.3678 34.7815 12.3232 34.3507C11.2785 33.9199 10.329 33.2876 9.52883 32.4898C8.72864 31.6919 8.09345 30.7443 7.65955 29.701C7.22565 28.6576 7.00153 27.5391 7 26.4091C7.00122 25.2789 7.22512 24.1601 7.65888 23.1165C8.09265 22.0729 8.72778 21.125 9.52801 20.3269C10.3282 19.5289 11.2779 18.8963 12.3226 18.4654C13.3674 18.0345 14.4868 17.8136 15.617 17.8154H15.8037C16.415 11.8654 20.6057 7.0121 28 7.0121M28 10.5051C23.1677 10.5051 18.9537 14.3178 18.9537 19.5818C18.9537 20.4148 18.2093 21.0704 17.3577 21.0704H15.7477C12.8053 21.0704 10.4183 23.4038 10.4183 26.2878C10.4183 29.1694 12.8053 31.5051 15.7477 31.5051H40.25C43.1923 31.5051 45.5793 29.1718 45.5793 26.2878C45.5793 23.4061 43.1923 21.0704 40.25 21.0704H38.64C37.7883 21.0704 37.044 20.4171 37.044 19.5818C37.044 14.2501 32.83 10.5051 27.9977 10.5051" fill="#212121"/>
</svg>
