<svg width="56" height="56" viewBox="0 0 56 56" fill="none" xmlns="http://www.w3.org/2000/svg">
<path d="M15.1667 44.3334C14.35 44.3334 13.6593 44.051 13.0947 43.4864C12.53 42.9217 12.2485 42.2318 12.25 41.4167C12.2516 40.6016 12.5339 39.9109 13.097 39.3447C13.6601 38.7785 14.35 38.4969 15.1667 38.5C15.9833 38.5031 16.674 38.7855 17.2387 39.347C17.8033 39.9086 18.0849 40.5985 18.0833 41.4167C18.0818 42.2349 17.7995 42.9256 17.2363 43.4887C16.6732 44.0518 15.9833 44.3334 15.1667 44.3334ZM22.1667 51.3334C21.35 51.3334 20.6593 51.051 20.0947 50.4864C19.53 49.9217 19.2485 49.2318 19.25 48.4167C19.2516 47.6016 19.5339 46.9109 20.097 46.3447C20.6601 45.7785 21.35 45.4969 22.1667 45.5C22.9833 45.5031 23.674 45.7855 24.2387 46.347C24.8033 46.9086 25.0849 47.5985 25.0833 48.4167C25.0818 49.2349 24.7995 49.9256 24.2363 50.4887C23.6732 51.0518 22.9833 51.3334 22.1667 51.3334ZM29.1667 44.3334C28.35 44.3334 27.6593 44.051 27.0947 43.4864C26.53 42.9217 26.2485 42.2318 26.25 41.4167C26.2516 40.6016 26.5339 39.9109 27.097 39.3447C27.6601 38.7785 28.35 38.4969 29.1667 38.5C29.9833 38.5031 30.674 38.7855 31.2387 39.347C31.8033 39.9086 32.0849 40.5985 32.0833 41.4167C32.0818 42.2349 31.7995 42.9256 31.2363 43.4887C30.6732 44.0518 29.9833 44.3334 29.1667 44.3334ZM43.1667 44.3334C42.35 44.3334 41.6593 44.051 41.0947 43.4864C40.53 42.9217 40.2485 42.2318 40.25 41.4167C40.2516 40.6016 40.5339 39.9109 41.097 39.3447C41.6601 38.7785 42.35 38.4969 43.1667 38.5C43.9833 38.5031 44.674 38.7855 45.2387 39.347C45.8033 39.9086 46.0849 40.5985 46.0833 41.4167C46.0818 42.2349 45.7995 42.9256 45.2363 43.4887C44.6732 44.0518 43.9833 44.3334 43.1667 44.3334ZM36.1667 51.3334C35.35 51.3334 34.6593 51.051 34.0947 50.4864C33.53 49.9217 33.2485 49.2318 33.25 48.4167C33.2516 47.6016 33.5339 46.9109 34.097 46.3447C34.6601 45.7785 35.35 45.4969 36.1667 45.5C36.9833 45.5031 37.674 45.7855 38.2387 46.347C38.8033 46.9086 39.0849 47.5985 39.0833 48.4167C39.0818 49.2349 38.7995 49.9256 38.2363 50.4887C37.6732 51.0518 36.9833 51.3334 36.1667 51.3334Z" fill="#212121"/>
<path d="M28 7.00977C35.3943 7.00977 39.5873 11.9028 40.1963 17.8131H40.383C41.5134 17.8113 42.633 18.0322 43.6779 18.4633C44.7228 18.8944 45.6726 19.5271 46.4728 20.3254C47.2731 21.1237 47.9082 22.0719 48.3418 23.1158C48.7754 24.1597 48.9991 25.2787 49 26.4091C48.9985 27.5391 48.7744 28.6576 48.3405 29.701C47.9066 30.7443 47.2714 31.6919 46.4712 32.4898C45.671 33.2876 44.7215 33.9199 43.6768 34.3507C42.6322 34.7815 41.513 35.0023 40.383 35.0004H15.617C14.487 35.0023 13.3678 34.7815 12.3232 34.3507C11.2785 33.9199 10.329 33.2876 9.52883 32.4898C8.72864 31.6919 8.09345 30.7443 7.65955 29.701C7.22565 28.6576 7.00153 27.5391 7 26.4091C7.00122 25.2789 7.22512 24.1601 7.65888 23.1165C8.09265 22.0729 8.72778 21.125 9.52801 20.3269C10.3282 19.5289 11.2779 18.8963 12.3226 18.4654C13.3674 18.0345 14.4868 17.8136 15.617 17.8154H15.8037C16.415 11.8654 20.6057 7.0121 28 7.0121M28 10.5051C23.1677 10.5051 18.9537 14.3178 18.9537 19.5818C18.9537 20.4148 18.2093 21.0704 17.3577 21.0704H15.7477C12.8053 21.0704 10.4183 23.4038 10.4183 26.2878C10.4183 29.1694 12.8053 31.5051 15.7477 31.5051H40.25C43.1923 31.5051 45.5793 29.1718 45.5793 26.2878C45.5793 23.4061 43.1923 21.0704 40.25 21.0704H38.64C37.7883 21.0704 37.044 20.4171 37.044 19.5818C37.044 14.2501 32.83 10.5051 27.9977 10.5051" fill="#212121"/>
</svg>
