<svg width="56" height="56" viewBox="0 0 56 56" fill="none" xmlns="http://www.w3.org/2000/svg">
<path d="M24.4163 36.7447L29.6337 30.9394C29.9283 30.6085 30.3375 30.4018 30.7786 30.3608C31.2198 30.3198 31.66 30.4477 32.0106 30.7186C32.3611 30.9895 32.5959 31.3833 32.6675 31.8205C32.7391 32.2577 32.6422 32.7058 32.3963 33.0744L32.2377 33.2797L29.6453 36.1637H34.956C35.2654 36.1634 35.5694 36.2451 35.8369 36.4005C36.1044 36.556 36.326 36.7795 36.4789 37.0485C36.6319 37.3174 36.7108 37.6221 36.7077 37.9315C36.7045 38.2409 36.6194 38.5439 36.461 38.8097L36.3257 39.0057L28.831 48.4114C28.5561 48.7579 28.1602 48.9875 27.7229 49.0539C27.2856 49.1204 26.8393 49.0188 26.4739 48.7695C26.1085 48.5203 25.851 48.1419 25.7533 47.7106C25.6555 47.2792 25.7247 46.8268 25.947 46.4444L26.094 46.232L31.3253 39.6637H25.7183C25.4011 39.6638 25.0897 39.5777 24.8176 39.4145C24.5455 39.2513 24.3229 39.0172 24.1736 38.7373C24.0243 38.4573 23.9539 38.1421 23.9699 37.8252C23.986 37.5083 24.0878 37.2018 24.2647 36.9384L24.4163 36.7447ZM30.3383 11.6847C37.7303 11.6847 41.9257 16.58 42.5347 22.4904H42.7213C43.8513 22.4888 44.9705 22.7099 46.015 23.141C47.0595 23.572 48.0088 24.2047 48.8088 25.0027C49.6088 25.8007 50.2437 26.7485 50.6773 27.792C51.111 28.8354 51.3348 29.9541 51.336 31.084C51.3345 32.2138 51.1104 33.3322 50.6767 34.3754C50.2429 35.4185 49.6079 36.3661 48.808 37.1638C48.0081 37.9616 47.0588 38.594 46.0145 39.025C44.9701 39.4559 43.8511 39.6769 42.7213 39.6754L38.5493 39.6777C38.9008 39.1615 39.0883 38.5514 39.0875 37.927C39.0867 37.3025 38.8975 36.6929 38.5447 36.1777L42.5907 36.1824C45.533 36.1824 47.9177 33.8444 47.9177 30.9627C47.9177 28.081 45.533 25.7454 42.5907 25.7454H40.9807C40.1267 25.7454 39.3823 25.092 39.3823 24.2567C39.3823 18.925 35.1707 15.18 30.3383 15.18C25.5037 15.18 21.292 18.9927 21.292 24.2567C21.292 25.0897 20.5477 25.7454 19.696 25.7454H18.086C15.1413 25.7454 12.7567 28.0787 12.7567 30.9627C12.7567 33.8444 15.1413 36.1824 18.0837 36.1824L22.195 36.18C21.8422 36.6952 21.653 37.3049 21.6522 37.9293C21.6514 38.5537 21.8389 39.1639 22.1903 39.68L17.953 39.6754C16.8232 39.6769 15.7042 39.4559 14.6599 39.025C13.6155 38.594 12.6663 37.9616 11.8664 37.1638C11.0664 36.3661 10.4314 35.4185 9.99767 34.3754C9.56391 33.3322 9.33987 32.2138 9.33834 31.084C9.33957 29.9541 9.56338 28.8354 9.997 27.792C10.4306 26.7485 11.0656 25.8007 11.8655 25.0027C12.6655 24.2047 13.6149 23.572 14.6594 23.141C15.7039 22.7099 16.8231 22.4888 17.953 22.4904H18.1397C18.7533 16.5403 22.9463 11.6847 30.3383 11.6847ZM23.3337 4.66602C27.1067 4.66602 30.4503 6.56768 32.4337 9.47735C31.7381 9.39686 31.0386 9.35557 30.3383 9.35368C29.4159 9.35368 28.53 9.41979 27.6807 9.55202C26.648 8.82008 25.4471 8.36091 24.1895 8.21713C22.932 8.07335 21.6584 8.24962 20.4872 8.72957C19.316 9.20952 18.2849 9.97759 17.4899 10.9625C16.6948 11.9474 16.1615 13.1172 15.9393 14.3633L15.769 15.3294C15.6741 15.8699 15.3916 16.3598 14.9712 16.7127C14.5509 17.0656 14.0195 17.2591 13.4707 17.259H12.3273C11.5052 17.2582 10.7012 17.501 10.0171 17.957C9.3329 18.4129 8.79927 19.0615 8.48362 19.8207C8.16797 20.5798 8.08446 21.4155 8.24366 22.2221C8.40285 23.0287 8.7976 23.77 9.37801 24.3524C8.64301 25.2857 8.05968 26.3474 7.66301 27.4954C6.42254 26.544 5.50296 25.2357 5.02781 23.7463C4.55266 22.257 4.54471 20.6579 5.00503 19.1639C5.46535 17.6699 6.37188 16.3525 7.60284 15.3889C8.83379 14.4252 10.3302 13.8613 11.891 13.773L12.4907 13.759C12.9419 11.211 14.2758 8.9033 16.2585 7.24059C18.2412 5.57789 20.7461 4.6664 23.3337 4.66602Z" fill="#212121"/>
</svg>
