<svg width="64" height="64" viewBox="0 0 64 64" fill="none" xmlns="http://www.w3.org/2000/svg">
<g filter="url(#filter0_d_1603_2580)">
<rect x="4.5" y="0.5" width="55" height="55" stroke="black" shape-rendering="crispEdges"/>
<path d="M32 10.5C39.3943 10.5 43.5873 15.393 44.1963 21.3033H44.383C45.5132 21.3015 46.6326 21.5223 47.6774 21.9533C48.7221 22.3842 49.6718 23.0168 50.472 23.8148C51.2722 24.6129 51.9074 25.5608 52.3411 26.6044C52.7749 27.648 52.9988 28.7668 53 29.897C52.9985 31.0268 52.7744 32.1452 52.3407 33.1883C51.9069 34.2315 51.2719 35.179 50.472 35.9768C49.672 36.7746 48.7228 37.407 47.6784 37.8379C46.6341 38.2689 45.5151 38.4899 44.3853 38.4883H43.0273L39.336 44.6367C39.1149 45.0224 38.7553 45.3094 38.3302 45.4396C37.9052 45.5698 37.4465 45.5334 37.0473 45.3376C36.6481 45.1419 36.3384 44.8016 36.1811 44.3858C36.0237 43.9701 36.0305 43.51 36.2 43.099L36.305 42.8867L38.986 38.4883H34.002L30.3107 44.6367C30.0896 45.0224 29.73 45.3094 29.3049 45.4396C28.8798 45.5698 28.4211 45.5334 28.022 45.3376C27.6228 45.1419 27.3131 44.8016 27.1557 44.3858C26.9984 43.9701 27.0051 43.51 27.1747 43.099L27.2797 42.8867L29.9583 38.4883H24.9697L21.283 44.6367C21.0644 45.0273 20.7045 45.3193 20.2772 45.4526C19.8499 45.586 19.3878 45.5506 18.9859 45.3536C18.5839 45.1567 18.2727 44.8132 18.1162 44.3938C17.9598 43.9745 17.9699 43.5111 18.1447 43.099L18.2497 42.8867L20.9283 38.4883H19.617C18.487 38.4902 17.3678 38.2694 16.3232 37.8386C15.2785 37.4078 14.329 36.7755 13.5288 35.9776C12.7286 35.1798 12.0935 34.2322 11.6596 33.1889C11.2256 32.1455 11.0015 31.027 11 29.897C11.0009 28.7666 11.2246 27.6476 11.6582 26.6037C12.0918 25.5598 12.7269 24.6116 13.5272 23.8133C14.3274 23.015 15.2772 22.3823 16.3221 21.9512C17.367 21.5201 18.4866 21.2992 19.617 21.301H19.8037C20.415 15.351 24.6057 10.5 32 10.5ZM32 13.993C27.1677 13.993 22.9537 17.8033 22.9537 23.0673C22.9537 23.9003 22.2093 24.556 21.3577 24.556H19.7477C16.8053 24.556 14.4183 26.8917 14.4183 29.7733C14.4183 32.655 16.8053 34.9977 19.75 34.9977H44.25C47.1923 34.9977 49.5793 32.6597 49.5793 29.778C49.5793 26.8963 47.1923 24.5607 44.25 24.5607H42.64C41.7883 24.5607 41.044 23.9073 41.044 23.072C41.044 17.7403 36.83 13.9953 31.9977 13.9953" fill="#212121"/>
</g>
<defs>
<filter id="filter0_d_1603_2580" x="0" y="0" width="64" height="64" filterUnits="userSpaceOnUse" color-interpolation-filters="sRGB">
<feFlood flood-opacity="0" result="BackgroundImageFix"/>
<feColorMatrix in="SourceAlpha" type="matrix" values="0 0 0 0 0 0 0 0 0 0 0 0 0 0 0 0 0 0 127 0" result="hardAlpha"/>
<feOffset dy="4"/>
<feGaussianBlur stdDeviation="2"/>
<feComposite in2="hardAlpha" operator="out"/>
<feColorMatrix type="matrix" values="0 0 0 0 0 0 0 0 0 0 0 0 0 0 0 0 0 0 0.25 0"/>
<feBlend mode="normal" in2="BackgroundImageFix" result="effect1_dropShadow_1603_2580"/>
<feBlend mode="normal" in="SourceGraphic" in2="effect1_dropShadow_1603_2580" result="shape"/>
</filter>
</defs>
</svg>
