<svg width="56" height="56" viewBox="0 0 56 56" fill="none" xmlns="http://www.w3.org/2000/svg">
<path d="M27.4165 4.66602C27.8806 4.66602 28.3258 4.85039 28.6539 5.17858C28.9821 5.50677 29.1665 5.95189 29.1665 6.41602V13.7777L34.1435 8.79835C34.3061 8.63579 34.499 8.50685 34.7114 8.41888C34.9238 8.3309 35.1515 8.28562 35.3813 8.28562C35.6112 8.28562 35.8389 8.3309 36.0513 8.41888C36.2636 8.50685 36.4566 8.63579 36.6192 8.79835C36.7817 8.9609 36.9107 9.15388 36.9986 9.36627C37.0866 9.57866 37.1319 9.8063 37.1319 10.0362C37.1319 10.2661 37.0866 10.4937 36.9986 10.7061C36.9107 10.9185 36.7817 11.1115 36.6192 11.274L29.1665 18.7267V25.666H36.1058L43.5585 18.2134C43.8902 17.9042 44.329 17.7359 44.7824 17.7439C45.2358 17.7519 45.6683 17.9356 45.989 18.2562C46.3096 18.5769 46.4932 19.0094 46.5012 19.4628C46.5092 19.9162 46.341 20.3549 46.0318 20.6867L41.0572 25.666H48.4188C48.883 25.666 49.3281 25.8504 49.6563 26.1786C49.9845 26.5068 50.1688 26.9519 50.1688 27.416C50.1688 27.8801 49.9845 28.3253 49.6563 28.6535C49.3281 28.9816 48.883 29.166 48.4188 29.166H41.0572L46.0365 34.143C46.1991 34.3056 46.328 34.4986 46.416 34.7109C46.504 34.9233 46.5492 35.151 46.5492 35.3808C46.5492 35.6107 46.504 35.8384 46.416 36.0508C46.328 36.2631 46.1991 36.4561 46.0365 36.6187C45.874 36.7812 45.681 36.9102 45.4686 36.9982C45.2562 37.0861 45.0286 37.1314 44.7987 37.1314C44.5688 37.1314 44.3412 37.0861 44.1288 36.9982C43.9164 36.9102 43.7234 36.7812 43.5608 36.6187L36.1058 29.166H29.1665V36.1054L36.6192 43.558C36.9283 43.8898 37.0966 44.3285 37.0886 44.7819C37.0806 45.2353 36.8969 45.6678 36.5763 45.9885C36.2557 46.3091 35.8231 46.4928 35.3697 46.5008C34.9164 46.5088 34.4776 46.3405 34.1458 46.0314L29.1665 41.0567V48.4184C29.1665 48.8825 28.9821 49.3276 28.6539 49.6558C28.3258 49.984 27.8806 50.1684 27.4165 50.1684C26.9524 50.1684 26.5073 49.984 26.1791 49.6558C25.8509 49.3276 25.6665 48.8825 25.6665 48.4184V41.0567L20.6895 46.036C20.5269 46.1986 20.334 46.3275 20.1216 46.4155C19.9092 46.5035 19.6816 46.5487 19.4517 46.5487C19.2218 46.5487 18.9941 46.5035 18.7818 46.4155C18.5694 46.3275 18.3764 46.1986 18.2138 46.036C18.0513 45.8735 17.9223 45.6805 17.8344 45.4681C17.7464 45.2557 17.7011 45.0281 17.7011 44.7982C17.7011 44.5683 17.7464 44.3407 17.8344 44.1283C17.9223 43.9159 18.0513 43.7229 18.2138 43.5604L25.6665 36.1054V29.166H18.7272L11.2745 36.6187C10.9428 36.9278 10.504 37.0961 10.0506 37.0881C9.59725 37.0801 9.16468 36.8964 8.84405 36.5758C8.52342 36.2552 8.33976 35.8226 8.33176 35.3692C8.32376 34.9159 8.49205 34.4771 8.80117 34.1454L13.7758 29.166H6.4165C5.95238 29.166 5.50726 28.9816 5.17907 28.6535C4.85088 28.3253 4.6665 27.8801 4.6665 27.416C4.6665 26.9519 4.85088 26.5068 5.17907 26.1786C5.50726 25.8504 5.95238 25.666 6.4165 25.666H13.7782L8.7965 20.689C8.46821 20.3607 8.28378 19.9155 8.28378 19.4512C8.28378 18.9869 8.46821 18.5416 8.7965 18.2134C9.1248 17.8851 9.57006 17.7006 10.0343 17.7006C10.4986 17.7006 10.9439 17.8851 11.2722 18.2134L18.7272 25.666H25.6665V18.7267L18.2138 11.274C18.0419 11.1138 17.904 10.9206 17.8083 10.7059C17.7127 10.4913 17.6613 10.2595 17.6571 10.0246C17.653 9.7896 17.6962 9.55619 17.7842 9.33829C17.8722 9.12038 18.0032 8.92244 18.1694 8.75626C18.3356 8.59008 18.5335 8.45908 18.7514 8.37106C18.9693 8.28305 19.2028 8.23982 19.4377 8.24397C19.6727 8.24811 19.9044 8.29955 20.1191 8.39519C20.3338 8.49084 20.527 8.62875 20.6872 8.80068L25.6665 13.7753V6.41602C25.6665 5.95189 25.8509 5.50677 26.1791 5.17858C26.5073 4.85039 26.9524 4.66602 27.4165 4.66602Z" fill="#212121"/>
</svg>
