<svg width="56" height="56" viewBox="0 0 56 56" fill="currentColor" xmlns="http://www.w3.org/2000/svg">
<path d="M28 3.5C28.4641 3.5 28.9093 3.68437 29.2374 4.01256C29.5656 4.34075 29.75 4.78587 29.75 5.25V8.75C29.75 9.21413 29.5656 9.65925 29.2374 9.98744C28.9093 10.3156 28.4641 10.5 28 10.5C27.5359 10.5 27.0908 10.3156 26.7626 9.98744C26.4344 9.65925 26.25 9.21413 26.25 8.75V5.25C26.25 4.78587 26.4344 4.34075 26.7626 4.01256C27.0908 3.68437 27.5359 3.5 28 3.5ZM28 40.25C31.2489 40.25 34.3647 38.9594 36.6621 36.6621C38.9594 34.3647 40.25 31.2489 40.25 28C40.25 24.7511 38.9594 21.6353 36.6621 19.3379C34.3647 17.0406 31.2489 15.75 28 15.75C24.7511 15.75 21.6353 17.0406 19.3379 19.3379C17.0406 21.6353 15.75 24.7511 15.75 28C15.75 31.2489 17.0406 34.3647 19.3379 36.6621C21.6353 38.9594 24.7511 40.25 28 40.25ZM28 36.75C25.6794 36.75 23.4538 35.8281 21.8128 34.1872C20.1719 32.5462 19.25 30.3206 19.25 28C19.25 25.6794 20.1719 23.4538 21.8128 21.8128C23.4538 20.1719 25.6794 19.25 28 19.25C30.3206 19.25 32.5462 20.1719 34.1872 21.8128C35.8281 23.4538 36.75 25.6794 36.75 28C36.75 30.3206 35.8281 32.5462 34.1872 34.1872C32.5462 35.8281 30.3206 36.75 28 36.75ZM50.75 29.75C51.2141 29.75 51.6592 29.5656 51.9874 29.2374C52.3156 28.9093 52.5 28.4641 52.5 28C52.5 27.5359 52.3156 27.0908 51.9874 26.7626C51.6592 26.4344 51.2141 26.25 50.75 26.25H47.25C46.7859 26.25 46.3408 26.4344 46.0126 26.7626C45.6844 27.0908 45.5 27.5359 45.5 28C45.5 28.4641 45.6844 28.9093 46.0126 29.2374C46.3408 29.5656 46.7859 29.75 47.25 29.75H50.75ZM28 45.5C28.4641 45.5 28.9093 45.6844 29.2374 46.0126C29.5656 46.3408 29.75 46.7859 29.75 47.25V50.75C29.75 51.2141 29.5656 51.6592 29.2374 51.9874C28.9093 52.3156 28.4641 52.5 28 52.5C27.5359 52.5 27.0908 52.3156 26.7626 51.9874C26.4344 51.6592 26.25 51.2141 26.25 50.75V47.25C26.25 46.7859 26.4344 46.3408 26.7626 46.0126C27.0908 45.6844 27.5359 45.5 28 45.5ZM8.75 29.75C9.21413 29.75 9.65925 29.5656 9.98744 29.2374C10.3156 28.9093 10.5 28.4641 10.5 28C10.5 27.5359 10.3156 27.0908 9.98744 26.7626C9.65925 26.4344 9.21413 26.25 8.75 26.25H5.25C4.78587 26.25 4.34075 26.4344 4.01256 26.7626C3.68437 27.0908 3.5 27.5359 3.5 28C3.5 28.4641 3.68437 28.9093 4.01256 29.2374C4.34075 29.5656 4.78587 29.75 5.25 29.75H8.75ZM9.2645 9.2645C9.59267 8.93643 10.0377 8.75212 10.5017 8.75212C10.9658 8.75212 11.4108 8.93643 11.739 9.2645L15.239 12.7645C15.4061 12.9259 15.5395 13.119 15.6312 13.3325C15.7229 13.546 15.7712 13.7757 15.7732 14.008C15.7752 14.2404 15.7309 14.4709 15.6429 14.6859C15.5549 14.901 15.425 15.0964 15.2607 15.2607C15.0964 15.425 14.901 15.5549 14.6859 15.6429C14.4709 15.7309 14.2404 15.7752 14.008 15.7732C13.7757 15.7712 13.546 15.7229 13.3325 15.6312C13.119 15.5395 12.9259 15.4061 12.7645 15.239L9.2645 11.739C8.93643 11.4108 8.75212 10.9658 8.75212 10.5017C8.75212 10.0377 8.93643 9.59267 9.2645 9.2645ZM11.739 46.739C11.4089 47.0578 10.9669 47.2342 10.508 47.2302C10.0492 47.2262 9.61028 47.0421 9.28582 46.7177C8.96135 46.3932 8.77731 45.9543 8.77332 45.4954C8.76933 45.0366 8.94572 44.5946 9.2645 44.2645L12.7645 40.7645C12.9259 40.5974 13.119 40.464 13.3325 40.3723C13.546 40.2806 13.7757 40.2323 14.008 40.2303C14.2404 40.2283 14.4709 40.2726 14.6859 40.3606C14.901 40.4486 15.0964 40.5785 15.2607 40.7428C15.425 40.9071 15.5549 41.1025 15.6429 41.3176C15.7309 41.5326 15.7752 41.7631 15.7732 41.9954C15.7712 42.2278 15.7229 42.4575 15.6312 42.671C15.5395 42.8845 15.4061 43.0776 15.239 43.239L11.739 46.739ZM46.739 9.2645C46.4108 8.93643 45.9658 8.75212 45.5017 8.75212C45.0377 8.75212 44.5927 8.93643 44.2645 9.2645L40.7645 12.7645C40.4457 13.0946 40.2693 13.5366 40.2733 13.9955C40.2773 14.4543 40.4614 14.8932 40.7858 15.2177C41.1103 15.5421 41.5492 15.7262 42.008 15.7302C42.4669 15.7342 42.9089 15.5578 43.239 15.239L46.739 11.739C47.0671 11.4108 47.2514 10.9658 47.2514 10.5017C47.2514 10.0377 47.0671 9.59267 46.739 9.2645ZM44.2645 46.739C44.5946 47.0578 45.0366 47.2342 45.4954 47.2302C45.9543 47.2262 46.3932 47.0421 46.7177 46.7177C47.0421 46.3932 47.2262 45.9543 47.2302 45.4954C47.2342 45.0366 47.0578 44.5946 46.739 44.2645L43.239 40.7645C43.0776 40.5974 42.8845 40.464 42.671 40.3723C42.4575 40.2806 42.2278 40.2323 41.9954 40.2303C41.7631 40.2283 41.5326 40.2726 41.3176 40.3606C41.1025 40.4486 40.9071 40.5785 40.7428 40.7428C40.5785 40.9071 40.4486 41.1025 40.3606 41.3176C40.2726 41.5326 40.2283 41.7631 40.2303 41.9954C40.2323 42.2278 40.2806 42.4575 40.3723 42.671C40.464 42.8845 40.5974 43.0776 40.7645 43.239L44.2645 46.739Z" fill="#212121"/>
</svg>
