<svg width="56" height="56" viewBox="0 0 56 56" fill="none" xmlns="http://www.w3.org/2000/svg">
<path d="M30.3347 13.9979C37.7278 13.9979 41.922 18.8921 42.5322 24.8013H42.7188C47.4765 24.8013 51.3335 28.6489 51.3335 33.3938C51.3335 38.1386 47.4765 41.9863 42.7188 41.9863H40.7098L40.6632 42.0971L40.5862 42.2464L36.5028 49.3199C36.2797 49.7126 35.9134 50.0037 35.4806 50.1325C35.0477 50.2614 34.5819 50.2179 34.1804 50.0112C33.7788 49.8045 33.4728 49.4505 33.3262 49.0234C33.1796 48.5963 33.2037 48.129 33.3937 47.7193L33.4718 47.5699L36.6942 41.9863H31.6833L31.6367 42.0971L31.5597 42.2464L27.4763 49.3199C27.2515 49.7093 26.8855 49.9972 26.4542 50.124C26.0228 50.2507 25.5592 50.2066 25.1595 50.0007C24.7598 49.7949 24.4547 49.4431 24.3074 49.0183C24.1601 48.5935 24.1819 48.1284 24.3683 47.7193L24.4453 47.5699L27.6677 41.9863H22.658L22.6113 42.0971L22.5343 42.2464L18.451 49.3199C18.2262 49.7093 17.8602 49.9972 17.4288 50.124C16.9975 50.2507 16.5339 50.2066 16.1342 50.0007C15.7345 49.7949 15.4294 49.4431 15.282 49.0183C15.1347 48.5935 15.1566 48.1284 15.343 47.7193L15.42 47.5699L18.6423 41.9863H17.9517C13.1928 41.9863 9.33583 38.1398 9.33583 33.3938C9.33583 28.6478 13.1928 24.8013 17.9517 24.8013H18.1383C18.7508 18.8524 22.9427 13.9979 30.3347 13.9979ZM30.3335 16.9088C25.3635 16.9088 21.0293 20.9314 21.0293 26.4871C21.0293 27.3679 20.264 28.0598 19.3878 28.0598H17.7312C14.7037 28.0598 12.2502 30.5249 12.2502 33.5664C12.2502 36.6091 14.7037 39.0754 17.73 39.0754H42.937C45.9633 39.0754 48.4168 36.6091 48.4168 33.5676C48.4168 30.5261 45.9633 28.0586 42.937 28.0586H41.2803C40.403 28.0586 39.6377 27.3679 39.6377 26.4883C39.6377 20.8603 35.3047 16.9099 30.3335 16.9099M10.1618 23.6848C10.2991 24.0165 10.3085 24.3874 10.1883 24.7257C10.0681 25.064 9.82669 25.3457 9.51083 25.5164L9.37667 25.5806L6.67933 26.7029C6.33621 26.8425 5.95271 26.8456 5.60738 26.7115C5.26206 26.5775 4.98106 26.3165 4.82193 25.982C4.66281 25.6475 4.63761 25.2648 4.7515 24.9123C4.86538 24.5598 5.10974 24.2642 5.4345 24.0861L5.56867 24.0219L8.266 22.8996C8.62153 22.7524 9.02096 22.7524 9.37647 22.8997C9.73199 23.0469 10.0145 23.3293 10.1618 23.6848ZM25.3285 12.4381L25.2573 12.4603C24.1782 12.8126 23.1748 13.2793 22.2578 13.8486C21.0049 13.3184 19.6158 13.2002 18.2913 13.5111C16.9667 13.8219 15.7753 14.5457 14.889 15.578C14.0027 16.6102 13.4675 17.8974 13.3605 19.2537C13.2536 20.61 13.5806 21.9652 14.2942 23.1236C13.4164 23.4376 12.5827 23.8635 11.8138 24.3906C10.7404 22.5522 10.338 20.3985 10.6751 18.2965C11.0123 16.1946 12.0682 14.2748 13.6628 12.8644C15.2573 11.454 17.2918 10.6405 19.4191 10.5625C21.5465 10.4846 23.635 11.147 25.3285 12.4369M6.51133 12.6458L6.6595 12.6994L9.36617 13.8533C10.1 14.1636 10.4523 15.0141 10.1525 15.7526C9.8725 16.4433 9.1235 16.7909 8.42583 16.5821L8.27883 16.5296L5.57333 15.3746C5.21984 15.2238 4.93946 14.9405 4.79227 14.5855C4.64507 14.2305 4.64276 13.832 4.78583 13.4753C5.06583 12.7858 5.81483 12.4369 6.51133 12.6458ZM15.1097 5.44276L15.1738 5.57809L16.2938 8.26843C16.4373 8.61392 16.4424 9.00133 16.3083 9.35053C16.1741 9.69973 15.9109 9.98403 15.5731 10.1446C15.2352 10.3052 14.8486 10.3299 14.4931 10.2135C14.1376 10.097 13.8404 9.84844 13.663 9.51909L13.5988 9.38493L12.4788 6.69459C12.3337 6.34884 12.3274 5.96047 12.4611 5.61014C12.5948 5.25982 12.8583 4.97447 13.1969 4.81335C13.5355 4.65224 13.9232 4.62774 14.2794 4.74495C14.6356 4.86215 14.9329 5.11206 15.1097 5.44276ZM25.6657 4.78943C26.368 5.08109 26.7262 5.85109 26.5173 6.56393L26.4637 6.71559L25.3075 9.37093C25.1609 9.71596 24.8884 9.9922 24.5454 10.1435C24.2024 10.2948 23.8147 10.3098 23.461 10.1854C23.1074 10.061 22.8144 9.80664 22.6416 9.47396C22.4688 9.14127 22.4292 8.75527 22.5308 8.39443L22.5833 8.24276L23.7395 5.58743C23.8892 5.22625 24.1762 4.9393 24.5374 4.78966C24.8986 4.64002 25.3044 4.63993 25.6657 4.78943Z" fill="#212121"/>
</svg>
