<svg width="56" height="56" viewBox="0 0 56 56" fill="none" xmlns="http://www.w3.org/2000/svg">
<path d="M17.005 16.2727C17.4849 13.8924 18.8319 11.7753 20.7846 10.332C22.7373 8.88872 25.1565 8.22226 27.5728 8.4619C29.9892 8.70155 32.2303 9.83022 33.8615 11.6289C35.4927 13.4276 36.3976 15.7682 36.4006 18.1963C36.401 19.4835 36.1477 20.7582 35.6554 21.9475C35.1631 23.1368 34.4413 24.2175 33.5312 25.1278C32.6212 26.0381 31.5407 26.7602 30.3515 27.2529C29.1624 27.7456 27.8878 27.9991 26.6006 27.9991H7.70059C7.14363 27.9991 6.60949 27.7779 6.21566 27.3841C5.82184 26.9902 5.60059 26.4561 5.60059 25.8991C5.60059 25.3422 5.82184 24.808 6.21566 24.4142C6.60949 24.0204 7.14363 23.7991 7.70059 23.7991H26.6006C28.0552 23.7539 29.4351 23.1444 30.4482 22.0997C31.4614 21.0551 32.0284 19.6571 32.0291 18.2019C32.0298 16.7466 31.4643 15.3481 30.4521 14.3024C29.44 13.2567 28.0607 12.6459 26.6062 12.5991C23.9406 12.5991 21.6446 14.4807 21.1238 17.0959L20.9586 17.9107C20.8335 18.4406 20.5075 18.9012 20.0494 19.1954C19.5913 19.4895 19.0368 19.5943 18.5029 19.4875C17.969 19.3807 17.4975 19.0708 17.1878 18.6231C16.878 18.1753 16.7542 17.6248 16.8426 17.0875L17.005 16.2727ZM37.4086 26.1903C38.1007 24.8104 39.2381 23.7042 40.6367 23.0507C42.0354 22.3972 43.6137 22.2346 45.1162 22.5891C46.6188 22.9437 47.9578 23.7948 48.9167 25.0047C49.8757 26.2145 50.3985 27.7125 50.4006 29.2563V29.3991C50.4006 31.2557 49.6631 33.0361 48.3503 34.3489C47.0376 35.6616 45.2571 36.3991 43.4006 36.3991H40.8358C41.2337 37.4087 41.3789 38.5003 41.2586 39.5788C41.1383 40.6573 40.7562 41.69 40.1456 42.5871C39.535 43.4843 38.7144 44.2185 37.7553 44.7261C36.7961 45.2336 35.7274 45.499 34.6422 45.4991C33.5462 45.5002 32.4669 45.2309 31.4998 44.7151C30.5328 44.1994 29.7079 43.4531 29.0982 42.5423L29.0562 42.4751C28.8931 42.2463 28.7777 41.9872 28.7166 41.7129C28.6555 41.4387 28.6501 41.155 28.7007 40.8786C28.7512 40.6023 28.8567 40.3388 29.0109 40.104C29.1651 39.8691 29.3648 39.6676 29.5983 39.5113C29.8318 39.355 30.0942 39.2472 30.3701 39.1942C30.646 39.1412 30.9298 39.1441 31.2045 39.2027C31.4793 39.2613 31.7395 39.3745 31.9698 39.5354C32.2 39.6964 32.3956 39.902 32.545 40.1399L32.5898 40.2071C33.0462 40.8875 33.819 41.2991 34.6422 41.2991C34.9639 41.2997 35.2826 41.2369 35.5801 41.1143C35.8775 40.9916 36.1479 40.8116 36.3758 40.5845C36.6037 40.3574 36.7846 40.0876 36.9083 39.7906C37.0319 39.4936 37.0958 39.1751 37.0964 38.8533C37.0969 38.5316 37.0341 38.2129 36.9115 37.9155C36.7889 37.618 36.6089 37.3476 36.3818 37.1197C36.1547 36.8918 35.8849 36.7109 35.5878 36.5872C35.2908 36.4636 34.9723 36.3997 34.6506 36.3991H7.70059C7.14363 36.3991 6.60949 36.1779 6.21566 35.7841C5.82184 35.3902 5.60059 34.8561 5.60059 34.2991C5.60059 33.7422 5.82184 33.208 6.21566 32.8142C6.60949 32.4204 7.14363 32.1991 7.70059 32.1991H43.4006C44.1432 32.1991 44.8554 31.9041 45.3805 31.379C45.9056 30.8539 46.2006 30.1418 46.2006 29.3991V29.2591C46.1998 28.6606 45.9972 28.0798 45.6254 27.6107C45.2537 27.1416 44.7347 26.8115 44.1522 26.6739C43.5697 26.5363 42.9578 26.5992 42.4154 26.8524C41.8731 27.1055 41.4319 27.5342 41.1634 28.0691L41.0794 28.2371C40.9575 28.4861 40.7876 28.7084 40.5794 28.8913C40.3712 29.0743 40.1288 29.2142 39.8663 29.303C39.6038 29.3918 39.3262 29.4278 39.0497 29.4088C38.7732 29.3899 38.5032 29.3164 38.2553 29.1926C38.0073 29.0688 37.7863 28.8972 37.605 28.6875C37.4237 28.4779 37.2857 28.2345 37.1989 27.9713C37.1121 27.7081 37.0783 27.4303 37.0994 27.1539C37.1205 26.8776 37.1961 26.6081 37.3218 26.3611L37.4086 26.1903Z" fill="#212121"/>
</svg>
